NotoSansSymbols2-Regular.ufo
<glyph name="seven" format="2">
	<unicode hex="0037"/>
	<advance width="1102"/>
	<outline>
		<contour>
			<point x="424" y="82" type="line"/>
			<point x="546" y="82" type="line"/>
			<point x="753" y="558" type="line"/>
			<point x="753" y="631" type="line"/>
			<point x="369" y="631" type="line"/>
			<point x="369" y="536" type="line"/>
			<point x="630" y="536" type="line"/>
		</contour>
	</outline>
	<anchor name="top" x="551" y="715"/>
</glyph>
<glyph name="downWhiteArrow" format="2">
	<unicode hex="21E9"/>
	<advance width="662"/>
	<outline>
		<contour>
			<point x="331" y="-30" type="line"/>
			<point x="611" y="250" type="line"/>
			<point x="458" y="250" type="line"/>
			<point x="458" y="683" type="line"/>
			<point x="204" y="683" type="line"/>
			<point x="204" y="250" type="line"/>
			<point x="51" y="250" type="line"/>
		</contour>
		<contour>
			<point x="331" y="13" type="line"/>
			<point x="124" y="220" type="line"/>
			<point x="234" y="220" type="line"/>
			<point x="234" y="653" type="line"/>
			<point x="428" y="653" type="line"/>
			<point x="428" y="220" type="line"/>
			<point x="538" y="220" type="line"/>
		</contour>
	</outline>
	<note>
		uni21E9
	</note>
</glyph>
<glyph name="shoulderedopenbox" format="2">
	<unicode hex="237D"/>
	<advance width="935"/>
	<outline>
		<contour>
			<point x="171" y="-209" type="line"/>
			<point x="764" y="-209" type="line"/>
			<point x="764" y="40" type="line"/>
			<point x="692" y="40" type="line"/>
			<point x="692" y="-138" type="line"/>
			<point x="243" y="-138" type="line"/>
			<point x="243" y="40" type="line"/>
			<point x="171" y="40" type="line"/>
		</contour>
		<contour>
			<point x="51" y="0" type="line"/>
			<point x="243" y="0" type="line"/>
			<point x="243" y="71" type="line"/>
			<point x="51" y="71" type="line"/>
		</contour>
		<contour>
			<point x="692" y="0" type="line"/>
			<point x="884" y="0" type="line"/>
			<point x="884" y="71" type="line"/>
			<point x="692" y="71" type="line"/>
		</contour>
	</outline>
	<note>
uni237D
</note>
</glyph>
<glyph name="ejectsymbol" format="2">
	<unicode hex="23CF"/>
	<advance width="910"/>
	<outline>
		<contour>
			<point x="167" y="288" type="line"/>
			<point x="743" y="288" type="line"/>
			<point x="456" y="606" type="line"/>
		</contour>
		<contour>
			<point x="167" y="70" type="line"/>
			<point x="743" y="70" type="line"/>
			<point x="743" y="209" type="line"/>
			<point x="167" y="209" type="line"/>
		</contour>
	</outline>
	<note>
		uni23CF
	</note>
</glyph>
<glyph name="blackRightDoubleTriangle" format="2">
	<unicode hex="23E9"/>
	<advance width="910"/>
	<outline>
		<contour>
			<point x="476" y="70" type="line"/>
			<point x="773" y="338" type="line"/>
			<point x="476" y="606" type="line"/>
		</contour>
		<contour>
			<point x="137" y="70" type="line"/>
			<point x="434" y="338" type="line"/>
			<point x="137" y="606" type="line"/>
		</contour>
	</outline>
	<note>
		uni23E9
	</note>
</glyph>
<glyph name="blackLeftDoubleTriangleWithVerticalBar" format="2">
	<unicode hex="23EE"/>
	<advance width="910"/>
	<outline>
		<contour>
			<point x="858" y="70" type="line"/>
			<point x="858" y="606" type="line"/>
			<point x="561" y="339" type="line"/>
		</contour>
		<contour>
			<point x="52" y="70" type="line"/>
			<point x="181" y="70" type="line"/>
			<point x="181" y="606" type="line"/>
			<point x="52" y="606" type="line"/>
		</contour>
		<contour>
			<point x="521" y="70" type="line"/>
			<point x="521" y="606" type="line"/>
			<point x="226" y="339" type="line"/>
		</contour>
	</outline>
	<note>
		uni23EE
	</note>
</glyph>
<glyph name="blackRightTriangleWithDoubleVerticalBar" format="2">
	<unicode hex="23EF"/>
	<advance width="910"/>
	<outline>
		<contour>
			<point x="100" y="70" type="line"/>
			<point x="397" y="339" type="line"/>
			<point x="100" y="606" type="line"/>
		</contour>
		<contour>
			<point x="437" y="70" type="line"/>
			<point x="566" y="70" type="line"/>
			<point x="566" y="606" type="line"/>
			<point x="437" y="606" type="line"/>
		</contour>
		<contour>
			<point x="681" y="70" type="line"/>
			<point x="810" y="70" type="line"/>
			<point x="810" y="606" type="line"/>
			<point x="681" y="606" type="line"/>
		</contour>
	</outline>
	<note>
		uni23EF
	</note>
</glyph>
<glyph name="blackMediumRightTriangle" format="2">
  <advance width="586"/>
  <unicode hex="23F5"/>
  <outline>
    <contour>
      <point x="154" y="628" type="line"/>
      <point x="154" y="72" type="line"/>
      <point x="432" y="350" type="line"/>
    </contour>
  </outline>
</glyph>
<glyph name="blackMediumUpTriangle" format="2">
	<advance width="586"/>
	<unicode hex="23F6"/>
	<outline>
		<contour>
			<point x="15" y="211" type="line"/>
			<point x="571" y="211" type="line"/>
			<point x="293" y="489" type="line"/>
		</contour>
	</outline>
</glyph>
<glyph name="blackMediumDownTriangle" format="2">
	<unicode hex="23F7"/>
	<advance width="586"/>
	<outline>
		<contour>
			<point x="571" y="489" type="line"/>
			<point x="15" y="489" type="line"/>
			<point x="293" y="211" type="line"/>
		</contour>
	</outline>
</glyph>
<glyph name="doubleVerticalBar" format="2">
	<unicode hex="23F8"/>
	<advance width="910"/>
	<outline>
		<contour>
			<point x="517" y="10" type="line"/>
			<point x="670" y="10" type="line"/>
			<point x="670" y="666" type="line"/>
			<point x="517" y="666" type="line"/>
		</contour>
		<contour>
			<point x="240" y="10" type="line"/>
			<point x="392" y="10" type="line"/>
			<point x="392" y="666" type="line"/>
			<point x="240" y="666" type="line"/>
		</contour>
	</outline>
</glyph>
<glyph name="blackSquareForStop" format="2">
	<unicode hex="23F9"/>
	<advance width="910"/>
	<outline>
		<contour>
			<point x="188" y="70" type="line"/>
			<point x="723" y="70" type="line"/>
			<point x="723" y="605" type="line"/>
			<point x="188" y="605" type="line"/>
		</contour>
	</outline>
</glyph>
<glyph name="horizontalTabulationControl" format="2">
	<unicode hex="2409"/>
	<advance width="600"/>
	<outline>
		<contour>
			<point x="403" y="124" type="line"/>
			<point x="440" y="124" type="line"/>
			<point x="440" y="321" type="line"/>
			<point x="501" y="321" type="line"/>
			<point x="501" y="351" type="line"/>
			<point x="342" y="351" type="line"/>
			<point x="342" y="321" type="line"/>
			<point x="403" y="321" type="line"/>
		</contour>
		<contour>
			<point x="114" y="351" type="line"/>
			<point x="151" y="351" type="line"/>
			<point x="151" y="454" type="line"/>
			<point x="232" y="454" type="line"/>
			<point x="232" y="351" type="line"/>
			<point x="269" y="351" type="line"/>
			<point x="269" y="578" type="line"/>
			<point x="232" y="578" type="line"/>
			<point x="232" y="484" type="line"/>
			<point x="151" y="484" type="line"/>
			<point x="151" y="578" type="line"/>
			<point x="114" y="578" type="line"/>
		</contour>
	</outline>
	<note>
		uni2409
	</note>
</glyph>
<glyph name="blank" format="2">
	<unicode hex="2423"/>
	<advance width="695"/>
	<outline>
		<contour>
			<point x="51" y="-209" type="line"/>
			<point x="644" y="-209" type="line"/>
			<point x="644" y="0" type="line"/>
			<point x="572" y="0" type="line"/>
			<point x="572" y="-138" type="line"/>
			<point x="123" y="-138" type="line"/>
			<point x="123" y="0" type="line"/>
			<point x="51" y="0" type="line"/>
		</contour>
	</outline>
	<note>
uni2423
</note>
</glyph>
<glyph name="blackSquare" format="2">
	<unicode hex="25A0"/>
	<advance width="834"/>
	<outline>
		<contour>
			<point x="51" y="-4" type="line"/>
			<point x="783" y="-4" type="line"/>
			<point x="783" y="728" type="line"/>
			<point x="51" y="728" type="line"/>
		</contour>
	</outline>
	<note>
filledbox
</note>
</glyph>
<glyph name="whiteSquare" format="2">
	<unicode hex="25A1"/>
	<advance width="834"/>
	<outline>
		<contour>
			<point x="51" y="-4" type="line"/>
			<point x="783" y="-4" type="line"/>
			<point x="783" y="728" type="line"/>
			<point x="51" y="728" type="line"/>
		</contour>
		<contour>
			<point x="88" y="33" type="line"/>
			<point x="88" y="691" type="line"/>
			<point x="746" y="691" type="line"/>
			<point x="746" y="33" type="line"/>
		</contour>
	</outline>
	<note>
uni25A1
</note>
</glyph>
<glyph name="blackSmallSquare" format="2">
	<unicode hex="25AA"/>
	<advance width="350"/>
	<outline>
		<contour>
			<point x="51" y="238" type="line"/>
			<point x="299" y="238" type="line"/>
			<point x="299" y="486" type="line"/>
			<point x="51" y="486" type="line"/>
		</contour>
	</outline>
	<note>
		uni25AA
	</note>
</glyph>
<glyph name="filledRect" format="2">
	<unicode hex="25AC"/>
	<advance width="1000"/>
	<outline>
		<contour>
			<point x="0" y="63" type="line"/>
			<point x="1000" y="63" type="line"/>
			<point x="1000" y="364" type="line"/>
			<point x="0" y="364" type="line"/>
		</contour>
	</outline>
	<note>
		filledrect
	</note>
</glyph>
<glyph name="whiteRect" format="2">
	<unicode hex="25AD"/>
	<advance width="1000"/>
	<outline>
		<contour>
			<point x="0" y="63" type="line"/>
			<point x="1000" y="63" type="line"/>
			<point x="1000" y="364" type="line"/>
			<point x="0" y="364" type="line"/>
		</contour>
		<contour>
			<point x="37" y="100" type="line"/>
			<point x="37" y="327" type="line"/>
			<point x="963" y="327" type="line"/>
			<point x="963" y="100" type="line"/>
		</contour>
	</outline>
	<note>
uni25AD
</note>
</glyph>
<glyph name="blackParallelogram" format="2">
	<unicode hex="25B0"/>
	<advance width="1000"/>
	<outline>
		<contour>
			<point x="3" y="63" type="line"/>
			<point x="933" y="63" type="line"/>
			<point x="997" y="364" type="line"/>
			<point x="67" y="364" type="line"/>
		</contour>
	</outline>
	<note>
uni25B0
</note>
</glyph>
<glyph name="upBlackTriangle" format="2">
	<unicode hex="25B2"/>
	<advance width="907"/>
	<outline>
		<contour>
			<point x="51" y="0" type="line"/>
			<point x="856" y="0" type="line"/>
			<point x="454" y="697" type="line"/>
		</contour>
	</outline>
	<note>
		triagup
	</note>
</glyph>
<glyph name="upWhiteTriangle" format="2">
	<unicode hex="25B3"/>
	<advance width="907"/>
	<outline>
		<contour>
			<point x="51" y="0" type="line"/>
			<point x="856" y="0" type="line"/>
			<point x="454" y="697" type="line"/>
		</contour>
		<contour>
			<point x="120" y="40" type="line"/>
			<point x="454" y="618" type="line"/>
			<point x="787" y="40" type="line"/>
		</contour>
	</outline>
	<note>
		uni25B3
	</note>
</glyph>
<glyph name="upWhiteSmallTriangle" format="2">
	<unicode hex="25B5"/>
	<advance width="370"/>
	<outline>
		<contour>
			<point x="36" y="174" type="line"/>
			<point x="333" y="174" type="line"/>
			<point x="185" y="471" type="line"/>
		</contour>
		<contour>
			<point x="97" y="211" type="line"/>
			<point x="185" y="391" type="line"/>
			<point x="272" y="211" type="line"/>
		</contour>
	</outline>
	<note>
		uni25B5
	</note>
</glyph>
<glyph name="rightBlackTriangle" format="2">
	<unicode hex="25B6"/>
	<advance width="799"/>
	<outline>
		<contour>
			<point x="51" y="-54" type="line"/>
			<point x="748" y="349" type="line"/>
			<point x="51" y="751" type="line"/>
		</contour>
	</outline>
	<note>
		uni25B6
	</note>
</glyph>
<glyph name="rightWhiteTriangle" format="2">
	<unicode hex="25B7"/>
	<advance width="799"/>
	<outline>
		<contour>
			<point x="51" y="-54" type="line"/>
			<point x="748" y="348" type="line"/>
			<point x="51" y="751" type="line"/>
		</contour>
		<contour>
			<point x="91" y="15" type="line"/>
			<point x="91" y="682" type="line"/>
			<point x="669" y="348" type="line"/>
		</contour>
	</outline>
	<note>
		uni25B7
	</note>
</glyph>
<glyph name="rightBlackPointer" format="2">
	<unicode hex="25BA"/>
	<advance width="733"/>
	<outline>
		<contour>
			<point x="51" y="158" type="line"/>
			<point x="682" y="322" type="line"/>
			<point x="51" y="487" type="line"/>
		</contour>
	</outline>
	<note>
triagrt
</note>
</glyph>
<glyph name="rightWhitePointer" format="2">
	<unicode hex="25BB"/>
	<advance width="733"/>
	<outline>
		<contour>
			<point x="51" y="158" type="line"/>
			<point x="682" y="322" type="line"/>
			<point x="51" y="487" type="line"/>
		</contour>
		<contour>
			<point x="88" y="205" type="line"/>
			<point x="88" y="440" type="line"/>
			<point x="551" y="322" type="line"/>
		</contour>
	</outline>
	<note>
		uni25BB
	</note>
</glyph>
<glyph name="downBlackTriangle" format="2">
	<unicode hex="25BC"/>
	<advance width="907"/>
	<outline>
		<contour>
			<point x="454" y="0" type="line"/>
			<point x="856" y="697" type="line"/>
			<point x="51" y="697" type="line"/>
		</contour>
	</outline>
	<note>
triagdn
</note>
</glyph>
<glyph name="downBlackSmallTriangle" format="2">
	<unicode hex="25BE"/>
	<advance width="370"/>
	<outline>
		<contour>
			<point x="185" y="174" type="line"/>
			<point x="333" y="471" type="line"/>
			<point x="36" y="471" type="line"/>
		</contour>
	</outline>
	<note>
		uni25BE
	</note>
</glyph>
<glyph name="leftBlackTriangle" format="2">
	<unicode hex="25C0"/>
	<advance width="799"/>
	<outline>
		<contour>
			<point x="748" y="-54" type="line"/>
			<point x="748" y="751" type="line"/>
			<point x="51" y="349" type="line"/>
		</contour>
	</outline>
	<note>
		uni25C0
	</note>
</glyph>
<glyph name="leftWhiteSmallTriangle" format="2">
	<unicode hex="25C3"/>
	<advance width="370"/>
	<outline>
		<contour>
			<point x="333" y="174" type="line"/>
			<point x="333" y="471" type="line"/>
			<point x="36" y="322" type="line"/>
		</contour>
		<contour>
			<point x="296" y="235" type="line"/>
			<point x="116" y="322" type="line"/>
			<point x="296" y="410" type="line"/>
		</contour>
	</outline>
	<note>
uni25C3
</note>
</glyph>
<glyph name="leftWhitePointer" format="2">
	<unicode hex="25C5"/>
	<advance width="733"/>
	<outline>
		<contour>
			<point x="682" y="158" type="line"/>
			<point x="682" y="487" type="line"/>
			<point x="51" y="322" type="line"/>
		</contour>
		<contour>
			<point x="645" y="205" type="line"/>
			<point x="182" y="322" type="line"/>
			<point x="645" y="440" type="line"/>
		</contour>
	</outline>
	<note>
uni25C5
</note>
</glyph>
<glyph name="whiteDiamond" format="2">
	<unicode hex="25C7"/>
	<advance width="1109"/>
	<outline>
		<contour>
			<point x="555" y="-141" type="line"/>
			<point x="1058" y="362" type="line"/>
			<point x="555" y="866" type="line"/>
			<point x="51" y="362" type="line"/>
		</contour>
		<contour>
			<point x="555" y="-50" type="line"/>
			<point x="143" y="362" type="line"/>
			<point x="555" y="775" type="line"/>
			<point x="967" y="362" type="line"/>
		</contour>
	</outline>
	<note>
uni25C7
</note>
</glyph>
<glyph name="upperLeftWhiteCircle" format="2">
	<unicode hex="25D5"/>
	<advance width="894"/>
	<outline>
		<contour>
			<point x="447" y="-34" type="curve" smooth="yes"/>
			<point x="667" y="-34"/>
			<point x="843" y="142"/>
			<point x="843" y="362" type="curve" smooth="yes"/>
			<point x="843" y="582"/>
			<point x="667" y="758"/>
			<point x="447" y="758" type="curve" smooth="yes"/>
			<point x="227" y="758"/>
			<point x="51" y="582"/>
			<point x="51" y="362" type="curve" smooth="yes"/>
			<point x="51" y="142"/>
			<point x="227" y="-34"/>
		</contour>
		<contour>
			<point x="93" y="362" type="line"/>
			<point x="93" y="559"/>
			<point x="250" y="716"/>
			<point x="447" y="716" type="curve"/>
			<point x="447" y="362" type="line"/>
		</contour>
	</outline>
	<note>
uni25D5
</note>
</glyph>
<glyph name="leftHalfBlackCircle" format="2">
	<unicode hex="25D6"/>
	<advance width="498"/>
	<outline>
		<contour>
			<point x="447" y="-34" type="curve"/>
			<point x="447" y="758" type="line"/>
			<point x="227" y="758"/>
			<point x="51" y="582"/>
			<point x="51" y="362" type="curve" smooth="yes"/>
			<point x="51" y="142"/>
			<point x="227" y="-34"/>
		</contour>
	</outline>
	<note>
uni25D6
</note>
</glyph>
<glyph name="upperLeftArc" format="2">
	<unicode hex="25DC"/>
	<advance width="894"/>
	<outline>
		<contour>
			<point x="51" y="362" type="curve"/>
			<point x="93" y="362" type="line"/>
			<point x="93" y="559"/>
			<point x="250" y="716"/>
			<point x="447" y="716" type="curve"/>
			<point x="447" y="758" type="line"/>
			<point x="227" y="758"/>
			<point x="51" y="582"/>
		</contour>
	</outline>
	<note>
		uni25DC
	</note>
</glyph>
<glyph name="lowerRightArc" format="2">
	<unicode hex="25DE"/>
	<advance width="894"/>
	<outline>
		<contour>
			<point x="447" y="-34" type="line"/>
			<point x="667" y="-34"/>
			<point x="843" y="142"/>
			<point x="843" y="362" type="curve"/>
			<point x="801" y="362" type="line"/>
			<point x="801" y="165"/>
			<point x="644" y="8"/>
			<point x="447" y="8" type="curve"/>
		</contour>
	</outline>
	<note>
uni25DE
</note>
</glyph>
<glyph name="upperHalfArc" format="2">
	<unicode hex="25E0"/>
	<advance width="894"/>
	<outline>
		<contour>
			<point x="51" y="362" type="curve"/>
			<point x="93" y="362" type="line"/>
			<point x="93" y="559"/>
			<point x="250" y="716"/>
			<point x="447" y="716" type="curve" smooth="yes"/>
			<point x="644" y="716"/>
			<point x="801" y="559"/>
			<point x="801" y="362" type="curve"/>
			<point x="843" y="362" type="line"/>
			<point x="843" y="582"/>
			<point x="667" y="758"/>
			<point x="447" y="758" type="curve" smooth="yes"/>
			<point x="227" y="758"/>
			<point x="51" y="582"/>
		</contour>
	</outline>
	<note>
		uni25E0
	</note>
</glyph>
<glyph name="lowerRightBlackTriangle" format="2">
	<unicode hex="25E2"/>
	<advance width="700"/>
	<outline>
		<contour>
			<point x="51" y="0" type="line"/>
			<point x="649" y="0" type="line"/>
			<point x="649" y="598" type="line"/>
		</contour>
	</outline>
	<note>
uni25E2
</note>
</glyph>
<glyph name="lowerLeftBlackTriangle" format="2">
	<unicode hex="25E3"/>
	<advance width="700"/>
	<outline>
		<contour>
			<point x="51" y="598" type="line"/>
			<point x="51" y="0" type="line"/>
			<point x="649" y="0" type="line"/>
		</contour>
	</outline>
	<note>
uni25E3
</note>
</glyph>
<glyph name="upperLeftBlackTriangle" format="2">
	<unicode hex="25E4"/>
	<advance width="700"/>
	<outline>
		<contour>
			<point x="649" y="715" type="line"/>
			<point x="51" y="715" type="line"/>
			<point x="51" y="117" type="line"/>
		</contour>
	</outline>
	<note>
		uni25E4
	</note>
</glyph>
<glyph name="upperRightBlackTriangle" format="2">
	<unicode hex="25E5"/>
	<advance width="700"/>
	<outline>
		<contour>
			<point x="649" y="117" type="line"/>
			<point x="649" y="715" type="line"/>
			<point x="51" y="715" type="line"/>
		</contour>
	</outline>
	<note>
		uni25E5
	</note>
</glyph>
<glyph name="upLeftHalfBlackTriangle" format="2">
	<unicode hex="25ED"/>
	<advance width="687"/>
	<outline>
		<contour>
			<point x="51" y="0" type="line"/>
			<point x="636" y="0" type="line"/>
			<point x="343" y="585" type="line"/>
		</contour>
		<contour>
			<point x="343" y="37" type="line"/>
			<point x="343" y="503" type="line"/>
			<point x="576" y="37" type="line"/>
		</contour>
	</outline>
	<note>
		uni25ED
	</note>
</glyph>
<glyph name="upRightHalfBlackTriangle" format="2">
	<unicode hex="25EE"/>
	<advance width="687"/>
	<outline>
		<contour>
			<point x="51" y="0" type="line"/>
			<point x="636" y="0" type="line"/>
			<point x="344" y="585" type="line"/>
		</contour>
		<contour>
			<point x="111" y="37" type="line"/>
			<point x="344" y="503" type="line"/>
			<point x="344" y="37" type="line"/>
		</contour>
	</outline>
	<note>
		uni25EE
	</note>
</glyph>
<glyph name="upperLeftTriangle" format="2">
  <advance width="700"/>
  <unicode hex="25F8"/>
  <note>
uni25F8
</note>
  <outline>
    <contour>
      <point x="649" y="715" type="line"/>
      <point x="51" y="715" type="line"/>
      <point x="51" y="117" type="line"/>
    </contour>
    <contour>
      <point x="545" y="673" type="line"/>
      <point x="93" y="221" type="line"/>
      <point x="93" y="673" type="line"/>
    </contour>
  </outline>
</glyph>
<glyph name="upperRightTriangle" format="2">
	<unicode hex="25F9"/>
	<advance width="700"/>
	<outline>
		<contour>
			<point x="649" y="117" type="line"/>
			<point x="649" y="715" type="line"/>
			<point x="51" y="715" type="line"/>
		</contour>
		<contour>
			<point x="607" y="221" type="line"/>
			<point x="155" y="673" type="line"/>
			<point x="607" y="673" type="line"/>
		</contour>
	</outline>
	<note>
		uni25F9
	</note>
</glyph>
<glyph name="lowerLeftTriangle" format="2">
	<advance width="700"/>
	<unicode hex="25FA"/>
	<note>
		uni25FA
	</note>
	<outline>
		<contour>
			<point x="51" y="598" type="line"/>
			<point x="51" y="0" type="line"/>
			<point x="649" y="0" type="line"/>
		</contour>
		<contour>
			<point x="93" y="494" type="line"/>
			<point x="545" y="42" type="line"/>
			<point x="93" y="42" type="line"/>
		</contour>
	</outline>
</glyph>
<glyph name="mediumBlackSquare" format="2">
	<unicode hex="25FC"/>
	<advance width="710"/>
	<outline>
		<contour>
			<point x="51" y="58" type="line"/>
			<point x="659" y="58" type="line"/>
			<point x="659" y="666" type="line"/>
			<point x="51" y="666" type="line"/>
		</contour>
	</outline>
	<note>
uni25FC
</note>
</glyph>
<glyph name="mediumWhiteSmallSquare" format="2">
	<unicode hex="25FD"/>
	<advance width="520"/>
	<outline>
		<contour>
			<point x="51" y="153" type="line"/>
			<point x="469" y="153" type="line"/>
			<point x="469" y="571" type="line"/>
			<point x="51" y="571" type="line"/>
		</contour>
		<contour>
			<point x="102" y="204" type="line"/>
			<point x="102" y="520" type="line"/>
			<point x="418" y="520" type="line"/>
			<point x="418" y="204" type="line"/>
		</contour>
	</outline>
	<note>
uni25FD
</note>
</glyph>
<glyph name="mediumBlackSmallSquare" format="2">
	<unicode hex="25FE"/>
	<advance width="520"/>
	<outline>
		<contour>
			<point x="51" y="153" type="line"/>
			<point x="469" y="153" type="line"/>
			<point x="469" y="571" type="line"/>
			<point x="51" y="571" type="line"/>
		</contour>
	</outline>
	<note>
		uni25FE
	</note>
</glyph>
<glyph name="ballotBoxWithX" format="2">
	<unicode hex="2612"/>
	<advance width="821"/>
	<outline>
		<contour>
			<point x="51" y="0" type="line"/>
			<point x="770" y="0" type="line"/>
			<point x="770" y="719" type="line"/>
			<point x="51" y="719" type="line"/>
		</contour>
		<contour>
			<point x="111" y="60" type="line"/>
			<point x="111" y="659" type="line"/>
			<point x="710" y="659" type="line"/>
			<point x="710" y="60" type="line"/>
		</contour>
		<contour>
			<point x="588" y="142" type="line"/>
			<point x="628" y="182" type="line"/>
			<point x="233" y="577" type="line"/>
			<point x="193" y="537" type="line"/>
		</contour>
		<contour>
			<point x="233" y="142" type="line"/>
			<point x="628" y="537" type="line"/>
			<point x="588" y="577" type="line"/>
			<point x="193" y="182" type="line"/>
		</contour>
	</outline>
	<note>
		uni2612
	</note>
</glyph>
<glyph name="blackShogiPiece" format="2">
	<unicode hex="2617"/>
	<advance width="628"/>
	<outline>
		<contour>
			<point x="51" y="0" type="line"/>
			<point x="577" y="0" type="line"/>
			<point x="532" y="409" type="line"/>
			<point x="314" y="533" type="line"/>
			<point x="96" y="409" type="line"/>
		</contour>
	</outline>
	<note>
		uni2617
	</note>
</glyph>
<glyph name="diamondBlackSuit" format="2">
	<unicode hex="2666"/>
	<advance width="606"/>
	<outline>
		<contour>
			<point x="303" y="-14" type="line"/>
			<point x="555" y="357" type="line"/>
			<point x="303" y="728" type="line"/>
			<point x="51" y="357" type="line"/>
		</contour>
	</outline>
	<note>
		diamond
	</note>
</glyph>
<glyph name="monogramForYang" format="2">
	<unicode hex="268A"/>
	<advance width="940"/>
	<outline>
		<contour>
			<point x="98" y="295" type="line"/>
			<point x="842" y="295" type="line"/>
			<point x="842" y="406" type="line"/>
			<point x="98" y="406" type="line"/>
		</contour>
	</outline>
	<note>
		uni268A
	</note>
</glyph>
<glyph name="monogramForYin" format="2">
	<unicode hex="268B"/>
	<advance width="940"/>
	<outline>
		<contour>
			<point x="546" y="295" type="line"/>
			<point x="842" y="295" type="line"/>
			<point x="842" y="406" type="line"/>
			<point x="546" y="406" type="line"/>
		</contour>
		<contour>
			<point x="98" y="295" type="line"/>
			<point x="394" y="295" type="line"/>
			<point x="394" y="406" type="line"/>
			<point x="98" y="406" type="line"/>
		</contour>
	</outline>
	<note>
uni268B
</note>
</glyph>
<glyph name="digramForGreaterYang" format="2">
	<unicode hex="268C"/>
	<advance width="940"/>
	<outline>
		<contour>
			<point x="98" y="409" type="line"/>
			<point x="842" y="409" type="line"/>
			<point x="842" y="520" type="line"/>
			<point x="98" y="520" type="line"/>
		</contour>
		<contour>
			<point x="98" y="181" type="line"/>
			<point x="842" y="181" type="line"/>
			<point x="842" y="292" type="line"/>
			<point x="98" y="292" type="line"/>
		</contour>
	</outline>
	<note>
		uni268C
	</note>
</glyph>
<glyph name="turnedBlackShogiPiece" format="2">
	<unicode hex="26CA"/>
	<advance width="628"/>
	<outline>
		<contour>
			<point x="314" y="-4" type="line"/>
			<point x="532" y="120" type="line"/>
			<point x="577" y="529" type="line"/>
			<point x="51" y="529" type="line"/>
			<point x="96" y="120" type="line"/>
		</contour>
	</outline>
	<note>
uni26CA
</note>
</glyph>
<glyph name="heavyGreekCross" format="2">
	<unicode hex="271A"/>
	<advance width="836"/>
	<outline>
		<contour>
			<point x="299" y="-9" type="line"/>
			<point x="535" y="-9" type="line"/>
			<point x="535" y="241" type="line"/>
			<point x="785" y="241" type="line"/>
			<point x="785" y="477" type="line"/>
			<point x="535" y="477" type="line"/>
			<point x="535" y="725" type="line"/>
			<point x="299" y="725" type="line"/>
			<point x="299" y="477" type="line"/>
			<point x="51" y="477" type="line"/>
			<point x="51" y="241" type="line"/>
			<point x="299" y="241" type="line"/>
		</contour>
	</outline>
	<note>
uni271A
</note>
</glyph>
<glyph name="heavyOpenCentreCross" format="2">
	<unicode hex="271C"/>
	<advance width="834"/>
	<outline>
		<contour>
			<point x="293" y="-8" type="line"/>
			<point x="541" y="-8" type="line"/>
			<point x="541" y="234" type="line"/>
			<point x="783" y="234" type="line"/>
			<point x="783" y="482" type="line"/>
			<point x="541" y="482" type="line"/>
			<point x="541" y="724" type="line"/>
			<point x="293" y="724" type="line"/>
			<point x="293" y="482" type="line"/>
			<point x="51" y="482" type="line"/>
			<point x="51" y="234" type="line"/>
			<point x="293" y="234" type="line"/>
		</contour>
		<contour>
			<point x="301" y="242" type="line"/>
			<point x="301" y="474" type="line"/>
			<point x="531" y="474" type="line"/>
			<point x="531" y="242" type="line"/>
		</contour>
	</outline>
	<note>
		uni271C
	</note>
</glyph>
<glyph name="upperRightDropShadowedWhiteSquare" format="2">
	<unicode hex="2750"/>
	<advance width="828"/>
	<outline>
		<contour>
			<point x="51" y="-48" type="line"/>
			<point x="681" y="-48" type="line"/>
			<point x="681" y="50" type="line"/>
			<point x="777" y="50" type="line"/>
			<point x="777" y="676" type="line"/>
			<point x="151" y="676" type="line"/>
			<point x="151" y="580" type="line"/>
			<point x="51" y="580" type="line"/>
		</contour>
		<contour>
			<point x="91" y="-6" type="line"/>
			<point x="91" y="542" type="line"/>
			<point x="641" y="542" type="line"/>
			<point x="641" y="-6" type="line"/>
		</contour>
	</outline>
	<note>
		uni2750
	</note>
</glyph>
<glyph name="heavyVerticalBar" format="2">
	<unicode hex="275A"/>
	<advance width="486"/>
	<outline>
		<contour>
			<point x="51" y="-92" type="line"/>
			<point x="435" y="-92" type="line"/>
			<point x="435" y="792" type="line"/>
			<point x="51" y="792" type="line"/>
		</contour>
	</outline>
	<note>
		uni275A
	</note>
</glyph>
<glyph name="mediumleftpointinganglebracketornament" format="2">
	<unicode hex="276C"/>
	<advance width="370"/>
	<outline>
		<contour>
			<point x="181" y="-74" type="line"/>
			<point x="319" y="-74" type="line"/>
			<point x="187" y="362" type="line"/>
			<point x="317" y="798" type="line"/>
			<point x="181" y="798" type="line"/>
			<point x="51" y="362" type="line"/>
		</contour>
	</outline>
	<note>
uni276C
</note>
</glyph>
<glyph name="mediumrightpointinganglebracketornament" format="2">
	<unicode hex="276D"/>
	<advance width="370"/>
	<outline>
		<contour>
			<point x="51" y="-74" type="line"/>
			<point x="189" y="-74" type="line"/>
			<point x="319" y="362" type="line"/>
			<point x="189" y="798" type="line"/>
			<point x="53" y="798" type="line"/>
			<point x="183" y="362" type="line"/>
		</contour>
	</outline>
	<note>
uni276D
</note>
</glyph>
<glyph name="heavyleftpointinganglequotationmarkornament" format="2">
	<unicode hex="276E"/>
	<advance width="553"/>
	<outline>
		<contour>
			<point x="304" y="-74" type="line"/>
			<point x="502" y="-74" type="line"/>
			<point x="243" y="362" type="line"/>
			<point x="502" y="798" type="line"/>
			<point x="303" y="798" type="line"/>
			<point x="51" y="362" type="line"/>
		</contour>
	</outline>
	<note>
uni276E
</note>
</glyph>
<glyph name="heavyleftpointinganglebracketornament" format="2">
	<unicode hex="2770"/>
	<advance width="494"/>
	<outline>
		<contour>
			<point x="181" y="-74" type="line"/>
			<point x="443" y="-74" type="line"/>
			<point x="323" y="364" type="line"/>
			<point x="443" y="798" type="line"/>
			<point x="181" y="798" type="line"/>
			<point x="51" y="364" type="line"/>
		</contour>
	</outline>
	<note>
		uni2770
	</note>
</glyph>
<glyph name="heavyrightpointinganglebracketornament" format="2">
	<unicode hex="2771"/>
	<advance width="494"/>
	<outline>
		<contour>
			<point x="51" y="-74" type="line"/>
			<point x="313" y="-74" type="line"/>
			<point x="443" y="364" type="line"/>
			<point x="313" y="798" type="line"/>
			<point x="51" y="798" type="line"/>
			<point x="171" y="364" type="line"/>
		</contour>
	</outline>
	<note>
uni2771
</note>
</glyph>
<glyph name="lightlefttortoiseshellbracketornament" format="2">
	<unicode hex="2772"/>
	<advance width="304"/>
	<outline>
		<contour>
			<point x="253" y="-103" type="line"/>
			<point x="253" y="-61" type="line"/>
			<point x="123" y="30" type="line"/>
			<point x="123" y="693" type="line"/>
			<point x="253" y="784" type="line"/>
			<point x="253" y="826" type="line"/>
			<point x="51" y="715" type="line"/>
			<point x="51" y="8" type="line"/>
		</contour>
	</outline>
	<note>
		uni2772
	</note>
</glyph>
<glyph name="lightrighttortoiseshellbracketornament" format="2">
	<unicode hex="2773"/>
	<advance width="304"/>
	<outline>
		<contour>
			<point x="51" y="-103" type="line"/>
			<point x="253" y="8" type="line"/>
			<point x="253" y="715" type="line"/>
			<point x="51" y="826" type="line"/>
			<point x="51" y="784" type="line"/>
			<point x="181" y="693" type="line"/>
			<point x="181" y="30" type="line"/>
			<point x="51" y="-61" type="line"/>
		</contour>
	</outline>
	<note>
uni2773
</note>
</glyph>
<glyph name="southEastHeavyArrow" format="2">
	<unicode hex="2798"/>
	<advance width="818"/>
	<outline>
		<contour>
			<point x="767" y="19" type="line"/>
			<point x="591" y="393" type="line"/>
			<point x="509" y="279" type="line"/>
			<point x="161" y="579" type="line"/>
			<point x="51" y="427" type="line"/>
			<point x="443" y="189" type="line"/>
			<point x="357" y="69" type="line"/>
		</contour>
	</outline>
	<note>
uni2798
</note>
</glyph>
<glyph name="northEastHeavyArrow" format="2">
	<unicode hex="279A"/>
	<advance width="818"/>
	<outline>
		<contour>
			<point x="161" y="19" type="line"/>
			<point x="509" y="319" type="line"/>
			<point x="591" y="205" type="line"/>
			<point x="767" y="579" type="line"/>
			<point x="357" y="529" type="line"/>
			<point x="443" y="409" type="line"/>
			<point x="51" y="171" type="line"/>
		</contour>
	</outline>
	<note>
		uni279A
	</note>
</glyph>
<glyph name="rightTriangleHeavyArrow" format="2">
	<unicode hex="279E"/>
	<advance width="1004"/>
	<outline>
		<contour>
			<point x="695" y="59" type="line"/>
			<point x="953" y="300" type="line"/>
			<point x="695" y="541" type="line"/>
			<point x="695" y="361" type="line"/>
			<point x="51" y="361" type="line"/>
			<point x="51" y="239" type="line"/>
			<point x="695" y="239" type="line"/>
		</contour>
	</outline>
	<note>
uni279E
</note>
</glyph>
<glyph name="rightTriangleBlackArrow" format="2">
	<unicode hex="27A1"/>
	<advance width="914"/>
	<outline>
		<contour>
			<point x="615" y="26" type="line"/>
			<point x="863" y="300" type="line"/>
			<point x="615" y="574" type="line"/>
			<point x="615" y="450" type="line"/>
			<point x="51" y="450" type="line"/>
			<point x="51" y="150" type="line"/>
			<point x="615" y="150" type="line"/>
		</contour>
	</outline>
	<note>
		uni27A1
	</note>
</glyph>
<glyph name="rightBlackArrowhead" format="2">
	<unicode hex="27A4"/>
	<advance width="1003"/>
	<outline>
		<contour>
			<point x="51" y="-58" type="line"/>
			<point x="952" y="300" type="line"/>
			<point x="51" y="658" type="line"/>
			<point x="300" y="300" type="line"/>
		</contour>
	</outline>
	<note>
		uni27A4
	</note>
</glyph>
<glyph name="dots2-braille" format="2">
	<unicode hex="2802"/>
	<advance width="700"/>
	<outline>
		<contour>
			<point x="217" y="309" type="curve" smooth="yes"/>
			<point x="256" y="309"/>
			<point x="281" y="335"/>
			<point x="281" y="379" type="curve" smooth="yes"/>
			<point x="281" y="424"/>
			<point x="255" y="449"/>
			<point x="217" y="449" type="curve" smooth="yes"/>
			<point x="176" y="449"/>
			<point x="152" y="422"/>
			<point x="152" y="379" type="curve" smooth="yes"/>
			<point x="152" y="334"/>
			<point x="177" y="309"/>
		</contour>
	</outline>
	<note>
uni2802
</note>
</glyph>
<glyph name="dots8-braille" format="2">
	<unicode hex="2880"/>
	<advance width="700"/>
	<outline>
		<contour>
			<point x="484" y="-191" type="curve" smooth="yes"/>
			<point x="523" y="-191"/>
			<point x="548" y="-165"/>
			<point x="548" y="-121" type="curve" smooth="yes"/>
			<point x="548" y="-76"/>
			<point x="522" y="-51"/>
			<point x="484" y="-51" type="curve" smooth="yes"/>
			<point x="443" y="-51"/>
			<point x="419" y="-78"/>
			<point x="419" y="-121" type="curve" smooth="yes"/>
			<point x="419" y="-166"/>
			<point x="444" y="-191"/>
		</contour>
	</outline>
	<note>
uni2880
</note>
</glyph>
<glyph name="blackLozenge" format="2">
	<unicode hex="29EB"/>
	<advance width="720"/>
	<outline>
		<contour>
			<point x="360" y="-157" type="line"/>
			<point x="669" y="364" type="line"/>
			<point x="360" y="881" type="line"/>
			<point x="51" y="364" type="line"/>
		</contour>
	</outline>
	<note>
uni29EB
</note>
</glyph>
<glyph name="upBlackArrow" format="2">
	<unicode hex="2B06"/>
	<advance width="582"/>
	<outline>
		<contour>
			<point x="51" y="410" type="line"/>
			<point x="531" y="410" type="line"/>
			<point x="291" y="707" type="line"/>
		</contour>
		<contour>
			<point x="174" y="-30" type="line"/>
			<point x="408" y="-30" type="line"/>
			<point x="408" y="435" type="line"/>
			<point x="174" y="435" type="line"/>
		</contour>
	</outline>
	<note>
uni2B06
</note>
</glyph>
<glyph name="northWestBlackArrow" format="2">
	<unicode hex="2B09"/>
	<advance width="706"/>
	<outline>
		<contour>
			<point x="489" y="5" type="line"/>
			<point x="655" y="171" type="line"/>
			<point x="326" y="499" type="line"/>
			<point x="161" y="334" type="line"/>
		</contour>
		<contour>
			<point x="91" y="229" type="line"/>
			<point x="431" y="569" type="line"/>
			<point x="51" y="609" type="line"/>
		</contour>
	</outline>
	<note>
		uni2B09
	</note>
</glyph>
<glyph name="southWestBlackArrow" format="2">
	<unicode hex="2B0B"/>
	<advance width="706"/>
	<outline>
		<contour>
			<point x="326" y="115" type="line"/>
			<point x="655" y="443" type="line"/>
			<point x="489" y="609" type="line"/>
			<point x="161" y="280" type="line"/>
		</contour>
		<contour>
			<point x="51" y="5" type="line"/>
			<point x="431" y="45" type="line"/>
			<point x="91" y="385" type="line"/>
		</contour>
	</outline>
	<note>
uni2B0B
</note>
</glyph>
<glyph name="leftRightBlackArrow" format="2">
	<unicode hex="2B0C"/>
	<advance width="1051"/>
	<outline>
		<contour>
			<point x="703" y="102" type="line"/>
			<point x="1000" y="342" type="line"/>
			<point x="703" y="582" type="line"/>
		</contour>
		<contour>
			<point x="348" y="102" type="line"/>
			<point x="348" y="582" type="line"/>
			<point x="51" y="342" type="line"/>
		</contour>
		<contour>
			<point x="293" y="225" type="line"/>
			<point x="758" y="225" type="line"/>
			<point x="758" y="459" type="line"/>
			<point x="293" y="459" type="line"/>
		</contour>
	</outline>
	<note>
		uni2B0C
	</note>
</glyph>
<glyph name="topHalfWhiteSquare" format="2">
	<unicode hex="2B13"/>
	<advance width="700"/>
	<outline>
		<contour>
			<point x="51" y="0" type="line"/>
			<point x="649" y="0" type="line"/>
			<point x="649" y="598" type="line"/>
			<point x="51" y="598" type="line"/>
		</contour>
		<contour>
			<point x="88" y="299" type="line"/>
			<point x="88" y="561" type="line"/>
			<point x="612" y="561" type="line"/>
			<point x="612" y="299" type="line"/>
		</contour>
	</outline>
	<note>
uni2B13
</note>
</glyph>
<glyph name="lowerLeftHalfWhiteSquare" format="2">
	<unicode hex="2B14"/>
	<advance width="700"/>
	<outline>
		<contour>
			<point x="51" y="0" type="line"/>
			<point x="649" y="0" type="line"/>
			<point x="649" y="598" type="line"/>
			<point x="51" y="598" type="line"/>
		</contour>
		<contour>
			<point x="88" y="37" type="line"/>
			<point x="88" y="561" type="line"/>
			<point x="612" y="37" type="line"/>
		</contour>
	</outline>
	<note>
uni2B14
</note>
</glyph>
<glyph name="topHalfBlackDiamond" format="2">
	<unicode hex="2B18"/>
	<advance width="703"/>
	<outline>
		<contour>
			<point x="353" y="63" type="line"/>
			<point x="652" y="362" type="line"/>
			<point x="353" y="661" type="line"/>
			<point x="51" y="362" type="line"/>
		</contour>
		<contour>
			<point x="353" y="114" type="line"/>
			<point x="106" y="362" type="line"/>
			<point x="601" y="362" type="line"/>
		</contour>
	</outline>
	<note>
		uni2B18
	</note>
</glyph>
<glyph name="blackLargeSquare" format="2">
	<unicode hex="2B1B"/>
	<advance width="1000"/>
	<outline>
		<contour>
			<point x="112" y="-26" type="line"/>
			<point x="888" y="-26" type="line"/>
			<point x="888" y="750" type="line"/>
			<point x="112" y="750" type="line"/>
		</contour>
	</outline>
	<note>
uni2B1B
</note>
</glyph>
<glyph name="blackVerysmallSquare" format="2">
	<unicode hex="2B1D"/>
	<advance width="284"/>
	<outline>
		<contour>
			<point x="51" y="271" type="line"/>
			<point x="233" y="271" type="line"/>
			<point x="233" y="453" type="line"/>
			<point x="51" y="453" type="line"/>
		</contour>
	</outline>
	<note>
		uni2B1D
	</note>
</glyph>
<glyph name="blackHexagon" format="2">
	<unicode hex="2B22"/>
	<advance width="826"/>
	<outline>
		<contour>
			<point x="413" y="-71" type="line"/>
			<point x="775" y="150" type="line"/>
			<point x="775" y="574" type="line"/>
			<point x="413" y="795" type="line"/>
			<point x="51" y="574" type="line"/>
			<point x="51" y="150" type="line"/>
		</contour>
	</outline>
	<note>
		uni2B22
	</note>
</glyph>
<glyph name="horizontalBlackHexagon" format="2">
	<unicode hex="2B23"/>
	<advance width="968"/>
	<outline>
		<contour>
			<point x="272" y="0" type="line"/>
			<point x="696" y="0" type="line"/>
			<point x="917" y="362" type="line"/>
			<point x="696" y="724" type="line"/>
			<point x="272" y="724" type="line"/>
			<point x="51" y="362" type="line"/>
		</contour>
	</outline>
	<note>
uni2B23
</note>
</glyph>
<glyph name="blackMediumDiamond" format="2">
	<unicode hex="2B25"/>
	<advance width="847"/>
	<outline>
		<contour>
			<point x="423" y="-10" type="line"/>
			<point x="796" y="362" type="line"/>
			<point x="423" y="735" type="line"/>
			<point x="51" y="362" type="line"/>
		</contour>
	</outline>
	<note>
		uni2B25
	</note>
</glyph>
<glyph name="blackMediumLozenge" format="2">
	<unicode hex="2B27"/>
	<advance width="510"/>
	<outline>
		<contour>
			<point x="255" y="19" type="line"/>
			<point x="459" y="363" type="line"/>
			<point x="255" y="705" type="line"/>
			<point x="51" y="363" type="line"/>
		</contour>
	</outline>
	<note>
		uni2B27
	</note>
</glyph>
<glyph name="blackSmallDiamond" format="2">
	<unicode hex="2B29"/>
	<advance width="367"/>
	<outline>
		<contour>
			<point x="184" y="230" type="line"/>
			<point x="316" y="362" type="line"/>
			<point x="184" y="495" type="line"/>
			<point x="51" y="362" type="line"/>
		</contour>
	</outline>
	<note>
		uni2B29
	</note>
</glyph>
<glyph name="blackSmallLozenge" format="2">
	<unicode hex="2B2A"/>
	<advance width="316"/>
	<outline>
		<contour>
			<point x="158" y="182" type="line"/>
			<point x="265" y="363" type="line"/>
			<point x="158" y="542" type="line"/>
			<point x="51" y="363" type="line"/>
		</contour>
	</outline>
	<note>
		uni2B2A
	</note>
</glyph>
<glyph name="whiteSmallLozenge" format="2">
	<unicode hex="2B2B"/>
	<advance width="316"/>
	<outline>
		<contour>
			<point x="158" y="182" type="line"/>
			<point x="265" y="363" type="line"/>
			<point x="158" y="542" type="line"/>
			<point x="51" y="363" type="line"/>
		</contour>
		<contour>
			<point x="158" y="256" type="line"/>
			<point x="95" y="363" type="line"/>
			<point x="158" y="469" type="line"/>
			<point x="221" y="363" type="line"/>
		</contour>
	</outline>
	<note>
uni2B2B
</note>
</glyph>
<glyph name="blackSmallStar" format="2">
	<unicode hex="2B51"/>
	<advance width="474"/>
	<outline>
		<contour>
			<point x="121" y="204" type="line"/>
			<point x="237" y="288" type="line"/>
			<point x="353" y="204" type="line"/>
			<point x="307" y="339" type="line"/>
			<point x="423" y="423" type="line"/>
			<point x="281" y="423" type="line"/>
			<point x="237" y="557" type="line"/>
			<point x="193" y="423" type="line"/>
			<point x="51" y="423" type="line"/>
			<point x="166" y="339" type="line"/>
		</contour>
	</outline>
	<note>
uni2B51
</note>
</glyph>
<glyph name="whiteSmallStar" format="2">
	<unicode hex="2B52"/>
	<advance width="474"/>
	<outline>
		<contour>
			<point x="121" y="204" type="line"/>
			<point x="237" y="288" type="line"/>
			<point x="353" y="204" type="line"/>
			<point x="307" y="339" type="line"/>
			<point x="423" y="423" type="line"/>
			<point x="281" y="423" type="line"/>
			<point x="237" y="557" type="line"/>
			<point x="193" y="423" type="line"/>
			<point x="51" y="423" type="line"/>
			<point x="166" y="339" type="line"/>
		</contour>
		<contour>
			<point x="181" y="289" type="line"/>
			<point x="203" y="354" type="line"/>
			<point x="148" y="394" type="line"/>
			<point x="216" y="394" type="line"/>
			<point x="237" y="458" type="line"/>
			<point x="258" y="394" type="line"/>
			<point x="326" y="394" type="line"/>
			<point x="271" y="354" type="line"/>
			<point x="293" y="289" type="line"/>
			<point x="237" y="329" type="line"/>
		</contour>
	</outline>
	<note>
		uni2B52
	</note>
</glyph>
<glyph name="blackRightPentagon" format="2">
	<unicode hex="2B53"/>
	<advance width="877"/>
	<outline>
		<contour>
			<point x="510" y="-23" type="line"/>
			<point x="826" y="362" type="line"/>
			<point x="510" y="747" type="line"/>
			<point x="51" y="606" type="line"/>
			<point x="51" y="118" type="line"/>
		</contour>
	</outline>
	<note>
		uni2B53
	</note>
</glyph>
<glyph name="leftRightTriangleArrow" format="2">
	<unicode hex="2B64"/>
	<advance width="844"/>
	<outline>
		<contour>
			<point x="249" y="222" type="line"/>
			<point x="249" y="293" type="line"/>
			<point x="595" y="293" type="line"/>
			<point x="595" y="222" type="line"/>
			<point x="793" y="346" type="line"/>
			<point x="595" y="470" type="line"/>
			<point x="595" y="397" type="line"/>
			<point x="249" y="397" type="line"/>
			<point x="249" y="470" type="line"/>
			<point x="51" y="346" type="line"/>
		</contour>
	</outline>
</glyph>
<glyph name="threeDTopLightedLeftEquilateralArrowhead" format="2">
	<unicode hex="2B98"/>
	<advance width="745"/>
	<outline>
		<contour>
			<point x="694" y="-35" type="line"/>
			<point x="520" y="342" type="line"/>
			<point x="694" y="718" type="line"/>
			<point x="51" y="342" type="line"/>
		</contour>
		<contour>
			<point x="113" y="342" type="line"/>
			<point x="624" y="641" type="line"/>
			<point x="486" y="342" type="line"/>
		</contour>
	</outline>
</glyph>
<glyph name="blackUpEquilateralArrowhead" format="2">
	<unicode hex="2B9D"/>
	<advance width="856"/>
	<outline>
		<contour>
			<point x="51" y="63" type="line"/>
			<point x="428" y="237" type="line"/>
			<point x="805" y="63" type="line"/>
			<point x="428" y="706" type="line"/>
		</contour>
	</outline>
</glyph>
<glyph name="uni2BBC" format="2">
	<unicode hex="2BBC"/>
	<advance width="808"/>
	<outline>
		<contour>
			<point x="288" y="244" type="line"/>
			<point x="757" y="244" type="line"/>
			<point x="757" y="713" type="line"/>
			<point x="288" y="713" type="line"/>
		</contour>
		<contour>
			<point x="51" y="6" type="line"/>
			<point x="520" y="6" type="line"/>
			<point x="520" y="475" type="line"/>
			<point x="51" y="475" type="line"/>
		</contour>
	</outline>
</glyph>
<glyph name="blackSquareCentred" format="2">
	<unicode hex="2BC0"/>
	<advance width="850"/>
	<outline>
		<contour>
			<point x="126" y="63" type="line"/>
			<point x="724" y="63" type="line"/>
			<point x="724" y="661" type="line"/>
			<point x="126" y="661" type="line"/>
		</contour>
	</outline>
</glyph>
<glyph name="blackMediumUpTriangleCentred" format="2">
	<unicode hex="2BC5"/>
	<advance width="850"/>
	<outline>
		<contour>
			<point x="104" y="163" type="line"/>
			<point x="746" y="163" type="line"/>
			<point x="425" y="731" type="line"/>
		</contour>
	</outline>
</glyph>
<glyph name="blackMediumLeftTriangleCentred" format="2">
	<unicode hex="2BC7"/>
	<advance width="850"/>
	<outline>
		<contour>
			<point x="709" y="28" type="line"/>
			<point x="709" y="670" type="line"/>
			<point x="141" y="349" type="line"/>
		</contour>
	</outline>
</glyph>
<glyph name="uni2BEF" format="2">
	<unicode hex="2BEF"/>
	<advance width="684"/>
	<outline>
		<contour>
			<point x="342" y="295" type="line"/>
			<point x="635" y="619" type="line"/>
			<point x="49" y="619" type="line"/>
		</contour>
		<contour>
			<point x="342" y="-30" type="line"/>
			<point x="635" y="294" type="line"/>
			<point x="49" y="294" type="line"/>
		</contour>
		<contour>
			<point x="303" y="560" type="line"/>
			<point x="381" y="560" type="line"/>
			<point x="381" y="781" type="line"/>
			<point x="303" y="781" type="line"/>
		</contour>
	</outline>
</glyph>
<glyph name="onequarter-atticGreek" format="2">
	<unicode hex="10140"/>
	<advance width="510"/>
	<outline>
		<contour>
			<point x="70" y="-18" type="line"/>
			<point x="278" y="-18"/>
			<point x="449" y="153"/>
			<point x="449" y="361" type="curve" smooth="yes"/>
			<point x="449" y="569"/>
			<point x="278" y="740"/>
			<point x="70" y="740" type="curve"/>
			<point x="70" y="650" type="line"/>
			<point x="224" y="650"/>
			<point x="353" y="517"/>
			<point x="353" y="361" type="curve" smooth="yes"/>
			<point x="353" y="209"/>
			<point x="227" y="72"/>
			<point x="70" y="72" type="curve"/>
		</contour>
	</outline>
	<note>
u10140
</note>
</glyph>
<glyph name="onedrachma-atticGreek" format="2">
	<unicode hex="10142"/>
	<advance width="592"/>
	<outline>
		<contour>
			<point x="97" y="0" type="line"/>
			<point x="187" y="0" type="line"/>
			<point x="187" y="333" type="line"/>
			<point x="553" y="333" type="line"/>
			<point x="553" y="412" type="line"/>
			<point x="187" y="412" type="line"/>
			<point x="187" y="714" type="line"/>
			<point x="97" y="714" type="line"/>
		</contour>
	</outline>
	<note>
u10142
</note>
</glyph>
<glyph name="five-atticGreek" format="2">
	<unicode hex="10143"/>
	<advance width="687"/>
	<outline>
		<contour>
			<point x="97" y="0" type="line"/>
			<point x="187" y="0" type="line"/>
			<point x="187" y="635" type="line"/>
			<point x="547" y="635" type="line"/>
			<point x="547" y="433" type="line"/>
			<point x="637" y="433" type="line"/>
			<point x="637" y="714" type="line"/>
			<point x="97" y="714" type="line"/>
		</contour>
	</outline>
	<note>
u10143
</note>
</glyph>
<glyph name="tentalents-atticGreek" format="2">
	<unicode hex="10149"/>
	<advance width="636"/>
	<outline>
		<contour>
			<point x="275" y="-252" type="line"/>
			<point x="361" y="-252" type="line"/>
			<point x="361" y="0" type="line"/>
			<point x="628" y="0" type="line"/>
			<point x="354" y="714" type="line"/>
			<point x="282" y="714" type="line"/>
			<point x="8" y="0" type="line"/>
			<point x="275" y="0" type="line"/>
		</contour>
		<contour>
			<point x="125" y="79" type="line"/>
			<point x="318" y="580" type="line"/>
			<point x="511" y="79" type="line"/>
		</contour>
	</outline>
	<note>
u10149
</note>
</glyph>
<glyph name="onehundredtalents-atticGreek" format="2">
	<unicode hex="1014B"/>
	<advance width="760"/>
	<outline>
		<contour>
			<point x="97" y="0" type="line"/>
			<point x="187" y="0" type="line"/>
			<point x="187" y="333" type="line"/>
			<point x="335" y="333" type="line"/>
			<point x="335" y="0" type="line"/>
			<point x="425" y="0" type="line"/>
			<point x="425" y="333" type="line"/>
			<point x="573" y="333" type="line"/>
			<point x="573" y="0" type="line"/>
			<point x="663" y="0" type="line"/>
			<point x="663" y="714" type="line"/>
			<point x="573" y="714" type="line"/>
			<point x="573" y="412" type="line"/>
			<point x="187" y="412" type="line"/>
			<point x="187" y="714" type="line"/>
			<point x="97" y="714" type="line"/>
		</contour>
	</outline>
	<note>
		u1014B
	</note>
</glyph>
<glyph name="fivehundredtalents-atticGreek" format="2">
	<unicode hex="1014C"/>
	<advance width="687"/>
	<outline>
		<contour>
			<point x="97" y="0" type="line"/>
			<point x="187" y="0" type="line"/>
			<point x="187" y="635" type="line"/>
			<point x="547" y="635" type="line"/>
			<point x="547" y="479" type="line"/>
			<point x="354" y="479" type="line"/>
			<point x="354" y="577" type="line"/>
			<point x="287" y="577" type="line"/>
			<point x="287" y="320" type="line"/>
			<point x="354" y="320" type="line"/>
			<point x="354" y="418" type="line"/>
			<point x="420" y="418" type="line"/>
			<point x="420" y="320" type="line"/>
			<point x="481" y="320" type="line"/>
			<point x="481" y="418" type="line"/>
			<point x="547" y="418" type="line"/>
			<point x="547" y="314" type="line"/>
			<point x="637" y="314" type="line"/>
			<point x="637" y="714" type="line"/>
			<point x="97" y="714" type="line"/>
		</contour>
	</outline>
	<note>
u1014C
</note>
</glyph>
<glyph name="thespiantwo-ancientGreek" format="2">
	<unicode hex="1015C"/>
	<advance width="584"/>
	<outline>
		<contour>
			<point x="102" y="-52" type="line"/>
			<point x="484" y="404" type="line"/>
			<point x="219" y="635" type="line"/>
			<point x="558" y="635" type="line"/>
			<point x="558" y="714" type="line"/>
			<point x="90" y="714" type="line"/>
			<point x="90" y="630" type="line"/>
			<point x="364" y="391" type="line"/>
			<point x="35" y="0" type="line"/>
		</contour>
	</outline>
	<note>
u1015C
</note>
</glyph>
<glyph name="cyrenaictwodrachmas-ancientGreek" format="2">
	<unicode hex="1015D"/>
	<advance width="654"/>
	<outline>
		<contour>
			<point x="97" y="0" type="line"/>
			<point x="604" y="0" type="line"/>
			<point x="604" y="79" type="line"/>
			<point x="187" y="79" type="line"/>
			<point x="187" y="635" type="line"/>
			<point x="604" y="635" type="line"/>
			<point x="604" y="714" type="line"/>
			<point x="97" y="714" type="line"/>
		</contour>
	</outline>
	<note>
u1015D
</note>
</glyph>
<glyph name="epidaureantwodrachmas-ancientGreek" format="2">
	<unicode hex="1015E"/>
	<advance width="607"/>
	<outline>
		<contour>
			<point x="50" y="635" type="line"/>
			<point x="557" y="635" type="line"/>
			<point x="557" y="714" type="line"/>
			<point x="50" y="714" type="line"/>
		</contour>
		<contour>
			<point x="50" y="0" type="line"/>
			<point x="557" y="0" type="line"/>
			<point x="557" y="79" type="line"/>
			<point x="50" y="79" type="line"/>
		</contour>
	</outline>
	<note>
		u1015E
	</note>
</glyph>
<glyph name="hermionianten-ancientGreek" format="2">
	<unicode hex="10162"/>
	<advance width="808"/>
	<outline>
		<contour>
			<point x="0" y="0" type="line"/>
			<point x="93" y="0" type="line"/>
			<point x="364" y="503" type="line"/>
			<point x="364" y="0" type="line"/>
			<point x="444" y="0" type="line"/>
			<point x="444" y="503" type="line"/>
			<point x="715" y="0" type="line"/>
			<point x="808" y="0" type="line"/>
			<point x="423" y="714" type="line"/>
			<point x="385" y="714" type="line"/>
		</contour>
	</outline>
	<note>
u10162
</note>
</glyph>
<glyph name="troezenianfiftyalternateform-ancientGreek" format="2">
	<unicode hex="10167"/>
	<advance width="687"/>
	<outline>
		<contour>
			<point x="97" y="0" type="line"/>
			<point x="187" y="0" type="line"/>
			<point x="187" y="635" type="line"/>
			<point x="547" y="635" type="line"/>
			<point x="547" y="433" type="line"/>
			<point x="637" y="433" type="line"/>
			<point x="637" y="714" type="line"/>
			<point x="97" y="714" type="line"/>
		</contour>
		<contour>
			<point x="277" y="303" type="line"/>
			<point x="462" y="336" type="line"/>
			<point x="462" y="356" type="line"/>
			<point x="385" y="442" type="line"/>
			<point x="468" y="522" type="line"/>
			<point x="468" y="542" type="line"/>
			<point x="277" y="573" type="line"/>
			<point x="277" y="531" type="line"/>
			<point x="397" y="511" type="line"/>
			<point x="327" y="446" type="line"/>
			<point x="399" y="367" type="line"/>
			<point x="277" y="345" type="line"/>
		</contour>
	</outline>
	<note>
u10167
</note>
</glyph>
<glyph name="hermionianfifty-ancientGreek" format="2">
	<unicode hex="10168"/>
	<advance width="692"/>
	<outline>
		<contour>
			<point x="97" y="0" type="line"/>
			<point x="187" y="0" type="line"/>
			<point x="187" y="616" type="line"/>
			<point x="552" y="370" type="line"/>
			<point x="642" y="370" type="line"/>
			<point x="642" y="714" type="line"/>
			<point x="552" y="714" type="line"/>
			<point x="552" y="468" type="line"/>
			<point x="187" y="714" type="line"/>
			<point x="97" y="714" type="line"/>
		</contour>
	</outline>
	<note>
u10168
</note>
</glyph>
<glyph name="thespianonehundred-ancientGreek" format="2">
	<unicode hex="1016A"/>
	<advance width="1002"/>
	<outline>
		<contour>
			<point x="97" y="0" type="line"/>
			<point x="187" y="0" type="line"/>
			<point x="187" y="334" type="line"/>
			<point x="543" y="334" type="line"/>
			<point x="543" y="0" type="line"/>
			<point x="942" y="0" type="line"/>
			<point x="942" y="79" type="line"/>
			<point x="633" y="79" type="line"/>
			<point x="633" y="334" type="line"/>
			<point x="924" y="334" type="line"/>
			<point x="924" y="412" type="line"/>
			<point x="633" y="412" type="line"/>
			<point x="633" y="635" type="line"/>
			<point x="942" y="635" type="line"/>
			<point x="942" y="714" type="line"/>
			<point x="543" y="714" type="line"/>
			<point x="543" y="413" type="line"/>
			<point x="187" y="413" type="line"/>
			<point x="187" y="714" type="line"/>
			<point x="97" y="714" type="line"/>
		</contour>
	</outline>
	<note>
u1016A
</note>
</glyph>
<glyph name="epidaureanfivehundred-ancientGreek" format="2">
	<unicode hex="1016C"/>
	<advance width="963"/>
	<outline>
		<contour>
			<point x="97" y="0" type="line"/>
			<point x="187" y="0" type="line"/>
			<point x="187" y="635" type="line"/>
			<point x="543" y="635" type="line"/>
			<point x="543" y="386" type="line"/>
			<point x="924" y="386" type="line"/>
			<point x="924" y="464" type="line"/>
			<point x="633" y="464" type="line"/>
			<point x="633" y="714" type="line"/>
			<point x="97" y="714" type="line"/>
		</contour>
	</outline>
	<note>
u1016C
</note>
</glyph>
<glyph name="troezenianfivehundred-ancientGreek" format="2">
	<unicode hex="1016D"/>
	<advance width="1176"/>
	<outline>
		<contour>
			<point x="97" y="0" type="line"/>
			<point x="187" y="0" type="line"/>
			<point x="187" y="635" type="line"/>
			<point x="543" y="635" type="line"/>
			<point x="543" y="0" type="line"/>
			<point x="1079" y="0" type="line"/>
			<point x="1079" y="714" type="line"/>
			<point x="989" y="714" type="line"/>
			<point x="989" y="79" type="line"/>
			<point x="633" y="79" type="line"/>
			<point x="633" y="714" type="line"/>
			<point x="97" y="714" type="line"/>
		</contour>
	</outline>
	<note>
		u1016D
	</note>
</glyph>
<glyph name="onehalf-greek" format="2">
	<unicode hex="10175"/>
	<advance width="583"/>
	<outline>
		<contour>
			<point x="0" y="0" type="line"/>
			<point x="559" y="0" type="line"/>
			<point x="559" y="79" type="line"/>
			<point x="164" y="79" type="line"/>
			<point x="472" y="451" type="line"/>
			<point x="373" y="451" type="line"/>
		</contour>
	</outline>
	<note>
u10175
</note>
</glyph>
<glyph name="sextans-roman" format="2">
	<unicode hex="10190"/>
	<advance width="572"/>
	<outline>
		<contour>
			<point x="57" y="416" type="line"/>
			<point x="515" y="416" type="line"/>
			<point x="515" y="487" type="line"/>
			<point x="57" y="487" type="line"/>
		</contour>
		<contour>
			<point x="57" y="217" type="line"/>
			<point x="515" y="217" type="line"/>
			<point x="515" y="288" type="line"/>
			<point x="57" y="288" type="line"/>
		</contour>
	</outline>
	<note>
		uni10190
	</note>
</glyph>
<glyph name="as-roman" format="2">
	<unicode hex="1019A"/>
	<advance width="572"/>
	<outline>
		<contour>
			<point x="107" y="0" type="line"/>
			<point x="182" y="0" type="line"/>
			<point x="312" y="335" type="line"/>
			<point x="507" y="335" type="line"/>
			<point x="507" y="410" type="line"/>
			<point x="341" y="410" type="line"/>
			<point x="458" y="713" type="line"/>
			<point x="383" y="713" type="line"/>
			<point x="266" y="410" type="line"/>
			<point x="70" y="410" type="line"/>
			<point x="70" y="335" type="line"/>
			<point x="237" y="335" type="line"/>
		</contour>
	</outline>
	<note>
uni1019A
</note>
</glyph>
<glyph name="centurial-roman" format="2">
	<unicode hex="1019B"/>
	<advance width="572"/>
	<outline>
		<contour>
			<point x="112" y="-11" type="line"/>
			<point x="538" y="480" type="line"/>
			<point x="519" y="554" type="line"/>
			<point x="49" y="711" type="line"/>
			<point x="25" y="639" type="line"/>
			<point x="452" y="496" type="line"/>
			<point x="54" y="39" type="line"/>
		</contour>
	</outline>
	<note>
uni1019B
</note>
</glyph>
<glyph name="u102E1" format="2">
	<unicode hex="102E1"/>
	<advance width="713"/>
	<outline>
		<contour>
			<point x="140" y="173" type="line"/>
			<point x="452" y="173"/>
			<point x="611" y="228"/>
			<point x="611" y="349" type="curve" smooth="yes"/>
			<point x="611" y="431"/>
			<point x="523" y="520"/>
			<point x="352" y="626" type="curve"/>
			<point x="305" y="549" type="line"/>
			<point x="444" y="463"/>
			<point x="521" y="388"/>
			<point x="521" y="347" type="curve" smooth="yes"/>
			<point x="521" y="302"/>
			<point x="382" y="263"/>
			<point x="140" y="263" type="curve"/>
		</contour>
	</outline>
	<anchor name="bottom" x="357" y="100"/>
</glyph>
<glyph name="uni1D2C2" format="2">
	<unicode hex="1D2C2"/>
	<advance width="864"/>
	<outline>
		<contour>
			<point x="423" y="-240" type="line"/>
			<point x="511" y="-240" type="line"/>
			<point x="789" y="436" type="line"/>
			<point x="693" y="436" type="line"/>
			<point x="448" y="-167" type="line"/>
			<point x="486" y="-167" type="line"/>
			<point x="201" y="536" type="line"/>
			<point x="105" y="536" type="line"/>
		</contour>
	</outline>
</glyph>
<glyph name="uni1D2C3" format="2">
	<unicode hex="1D2C3"/>
	<advance width="864"/>
	<outline>
		<contour>
			<point x="333" y="-240" type="line"/>
			<point x="421" y="-240" type="line"/>
			<point x="575" y="330" type="line"/>
			<point x="541" y="332" type="line"/>
			<point x="692" y="-240" type="line"/>
			<point x="789" y="-240" type="line"/>
			<point x="601" y="436" type="line"/>
			<point x="513" y="436" type="line"/>
			<point x="360" y="-126" type="line"/>
			<point x="394" y="-136" type="line"/>
			<point x="201" y="536" type="line"/>
			<point x="105" y="536" type="line"/>
		</contour>
	</outline>
</glyph>
<glyph name="uni1D2C4" format="2">
	<unicode hex="1D2C4"/>
	<advance width="1052"/>
	<outline>
		<contour>
			<point x="541" y="333" type="line"/>
			<point x="694" y="-240" type="line"/>
			<point x="782" y="-240" type="line"/>
			<point x="977" y="436" type="line"/>
			<point x="881" y="436" type="line"/>
			<point x="722" y="-133" type="line"/>
			<point x="758" y="-133" type="line"/>
			<point x="601" y="436" type="line"/>
			<point x="513" y="436" type="line"/>
			<point x="357" y="-133" type="line"/>
			<point x="393" y="-133" type="line"/>
			<point x="201" y="536" type="line"/>
			<point x="105" y="536" type="line"/>
			<point x="333" y="-240" type="line"/>
			<point x="421" y="-240" type="line"/>
			<point x="575" y="333" type="line"/>
		</contour>
	</outline>
</glyph>
<glyph name="uni1D2C5" format="2">
	<unicode hex="1D2C5"/>
	<advance width="768"/>
	<outline>
		<contour>
			<point x="693" y="667" type="line"/>
			<point x="693" y="760" type="line"/>
			<point x="105" y="546" type="line"/>
			<point x="105" y="453" type="line"/>
		</contour>
	</outline>
</glyph>
<glyph name="uni1D2C6" format="2">
	<unicode hex="1D2C6"/>
	<advance width="825"/>
	<outline>
		<contour>
			<point x="750" y="667" type="line"/>
			<point x="750" y="760" type="line"/>
			<point x="105" y="549" type="line"/>
			<point x="105" y="458" type="line"/>
			<point x="143" y="475" type="line"/>
		</contour>
		<contour>
			<point x="389" y="-240" type="line"/>
			<point x="485" y="-240" type="line"/>
			<point x="172" y="532" type="line"/>
			<point x="116" y="536" type="line"/>
			<point x="105" y="458" type="line"/>
		</contour>
	</outline>
</glyph>
<glyph name="uni1D2C9" format="2">
	<unicode hex="1D2C9"/>
	<advance width="1082"/>
	<outline>
		<contour>
			<point x="1007" y="665" type="line"/>
			<point x="1007" y="760" type="line"/>
			<point x="105" y="549" type="line"/>
			<point x="105" y="458" type="line"/>
			<point x="143" y="472" type="line"/>
		</contour>
		<contour>
			<point x="518" y="333" type="line"/>
			<point x="671" y="-240" type="line"/>
			<point x="759" y="-240" type="line"/>
			<point x="954" y="436" type="line"/>
			<point x="858" y="436" type="line"/>
			<point x="699" y="-133" type="line"/>
			<point x="735" y="-133" type="line"/>
			<point x="578" y="436" type="line"/>
			<point x="490" y="436" type="line"/>
			<point x="334" y="-133" type="line"/>
			<point x="370" y="-133" type="line"/>
			<point x="177" y="536" type="line"/>
			<point x="116" y="536" type="line"/>
			<point x="105" y="458" type="line"/>
			<point x="310" y="-240" type="line"/>
			<point x="398" y="-240" type="line"/>
			<point x="552" y="333" type="line"/>
		</contour>
	</outline>
</glyph>
<glyph name="uni1D2CB" format="2">
	<unicode hex="1D2CB"/>
	<advance width="808"/>
	<outline>
		<contour>
			<point x="105" y="737" type="line"/>
			<point x="654" y="616" type="line"/>
			<point x="654" y="655" type="line"/>
			<point x="105" y="531" type="line"/>
			<point x="105" y="441" type="line"/>
			<point x="733" y="590" type="line"/>
			<point x="733" y="678" type="line"/>
			<point x="105" y="832" type="line"/>
		</contour>
		<contour>
			<point x="389" y="-240" type="line"/>
			<point x="485" y="-240" type="line"/>
			<point x="172" y="510" type="line"/>
			<point x="116" y="514" type="line"/>
			<point x="105" y="441" type="line"/>
		</contour>
	</outline>
</glyph>
<glyph name="uni1D2CC" format="2">
	<unicode hex="1D2CC"/>
	<advance width="830"/>
	<outline>
		<contour>
			<point x="116" y="516" type="line"/>
			<point x="111" y="441" type="line"/>
			<point x="389" y="-240" type="line"/>
			<point x="477" y="-240" type="line"/>
			<point x="755" y="436" type="line"/>
			<point x="659" y="436" type="line"/>
			<point x="414" y="-167" type="line"/>
			<point x="452" y="-167" type="line"/>
			<point x="172" y="532" type="line"/>
		</contour>
		<contour>
			<point x="105" y="737" type="line"/>
			<point x="654" y="616" type="line"/>
			<point x="654" y="655" type="line"/>
			<point x="111" y="531" type="line"/>
			<point x="111" y="441" type="line"/>
			<point x="733" y="590" type="line"/>
			<point x="733" y="678" type="line"/>
			<point x="105" y="832" type="line"/>
		</contour>
	</outline>
</glyph>
<glyph name="uni1D2D3" format="2">
	<unicode hex="1D2D3"/>
	<advance width="1024"/>
	<outline>
		<contour>
			<point x="219" y="778" type="line"/>
			<point x="218" y="755" type="line"/>
			<point x="733" y="867" type="line"/>
			<point x="733" y="962" type="line"/>
			<point x="105" y="808" type="line"/>
			<point x="105" y="720" type="line"/>
			<point x="623" y="601" type="line"/>
			<point x="624" y="623" type="line"/>
			<point x="105" y="507" type="line"/>
			<point x="105" y="429" type="line"/>
			<point x="141" y="426" type="line"/>
			<point x="733" y="566" type="line"/>
			<point x="733" y="654" type="line"/>
		</contour>
		<contour>
			<point x="513" y="303" type="line"/>
			<point x="666" y="-240" type="line"/>
			<point x="754" y="-240" type="line"/>
			<point x="949" y="406" type="line"/>
			<point x="853" y="406" type="line"/>
			<point x="694" y="-133" type="line"/>
			<point x="730" y="-133" type="line"/>
			<point x="573" y="406" type="line"/>
			<point x="485" y="406" type="line"/>
			<point x="329" y="-133" type="line"/>
			<point x="365" y="-133" type="line"/>
			<point x="176" y="509" type="line"/>
			<point x="105" y="429" type="line"/>
			<point x="305" y="-240" type="line"/>
			<point x="393" y="-240" type="line"/>
			<point x="547" y="303" type="line"/>
		</contour>
	</outline>
</glyph>
<glyph name="u1D2E5" format="2">
	<unicode hex="1D2E5"/>
	<advance width="958"/>
	<outline>
		<contour>
			<point x="45" y="103" type="line"/>
			<point x="45" y="0" type="line"/>
			<point x="913" y="0" type="line"/>
			<point x="913" y="103" type="line"/>
		</contour>
	</outline>
</glyph>
<glyph name="u1D2EA" format="2">
	<unicode hex="1D2EA"/>
	<advance width="958"/>
	<outline>
		<contour>
			<point x="45" y="103" type="line"/>
			<point x="45" y="0" type="line"/>
			<point x="913" y="0" type="line"/>
			<point x="913" y="103" type="line"/>
		</contour>
		<contour>
			<point x="45" y="276" type="line"/>
			<point x="45" y="173" type="line"/>
			<point x="913" y="173" type="line"/>
			<point x="913" y="276" type="line"/>
		</contour>
	</outline>
</glyph>
<glyph name="u1D360" format="2">
	<unicode hex="1D360"/>
	<advance width="816"/>
	<outline>
		<contour>
			<point x="51" y="0" type="line"/>
			<point x="765" y="0" type="line"/>
			<point x="765" y="78" type="line"/>
			<point x="51" y="78" type="line"/>
		</contour>
	</outline>
	<note>
u1D360
</note>
</glyph>
<glyph name="u1D366" format="2">
	<unicode hex="1D366"/>
	<advance width="816"/>
	<outline>
		<contour>
			<point x="51" y="160" type="line"/>
			<point x="765" y="160" type="line"/>
			<point x="765" y="238" type="line"/>
			<point x="447" y="238" type="line"/>
			<point x="447" y="718" type="line"/>
			<point x="369" y="718" type="line"/>
			<point x="369" y="238" type="line"/>
			<point x="51" y="238" type="line"/>
		</contour>
		<contour>
			<point x="51" y="0" type="line"/>
			<point x="765" y="0" type="line"/>
			<point x="765" y="78" type="line"/>
			<point x="51" y="78" type="line"/>
		</contour>
	</outline>
	<note>
		u1D366
	</note>
</glyph>
<glyph name="u1D368" format="2">
	<unicode hex="1D368"/>
	<advance width="816"/>
	<outline>
		<contour>
			<point x="51" y="480" type="line"/>
			<point x="765" y="480" type="line"/>
			<point x="765" y="558" type="line"/>
			<point x="447" y="558" type="line"/>
			<point x="447" y="718" type="line"/>
			<point x="369" y="718" type="line"/>
			<point x="369" y="558" type="line"/>
			<point x="51" y="558" type="line"/>
		</contour>
		<contour>
			<point x="51" y="0" type="line"/>
			<point x="765" y="0" type="line"/>
			<point x="765" y="78" type="line"/>
			<point x="51" y="78" type="line"/>
		</contour>
		<contour>
			<point x="51" y="160" type="line"/>
			<point x="765" y="160" type="line"/>
			<point x="765" y="238" type="line"/>
			<point x="51" y="238" type="line"/>
		</contour>
		<contour>
			<point x="51" y="320" type="line"/>
			<point x="765" y="320" type="line"/>
			<point x="765" y="398" type="line"/>
			<point x="51" y="398" type="line"/>
		</contour>
	</outline>
	<note>
u1D368
</note>
</glyph>
<glyph name="u1D369" format="2">
	<unicode hex="1D369"/>
	<advance width="180"/>
	<outline>
		<contour>
			<point x="51" y="0" type="line"/>
			<point x="129" y="0" type="line"/>
			<point x="129" y="718" type="line"/>
			<point x="51" y="718" type="line"/>
		</contour>
	</outline>
	<note>
u1D369
</note>
</glyph>
<glyph name="u1D36E" format="2">
	<unicode hex="1D36E"/>
	<advance width="816"/>
	<outline>
		<contour>
			<point x="369" y="0" type="line"/>
			<point x="447" y="0" type="line"/>
			<point x="447" y="640" type="line"/>
			<point x="765" y="640" type="line"/>
			<point x="765" y="718" type="line"/>
			<point x="51" y="718" type="line"/>
			<point x="51" y="640" type="line"/>
			<point x="369" y="640" type="line"/>
		</contour>
	</outline>
	<note>
		u1D36E
	</note>
</glyph>
<glyph name="u1D36F" format="2">
	<unicode hex="1D36F"/>
	<advance width="816"/>
	<outline>
		<contour>
			<point x="289" y="0" type="line"/>
			<point x="367" y="0" type="line"/>
			<point x="367" y="640" type="line"/>
			<point x="449" y="640" type="line"/>
			<point x="449" y="0" type="line"/>
			<point x="527" y="0" type="line"/>
			<point x="527" y="640" type="line"/>
			<point x="765" y="640" type="line"/>
			<point x="765" y="718" type="line"/>
			<point x="51" y="718" type="line"/>
			<point x="51" y="640" type="line"/>
			<point x="289" y="640" type="line"/>
		</contour>
	</outline>
	<note>
u1D36F
</note>
</glyph>
<glyph name="reverseCheckerBoard" format="2">
	<unicode hex="1F67F"/>
	<advance width="1362"/>
	<outline>
		<contour>
			<point x="681" y="-293" type="line"/>
			<point x="1362" y="-293" type="line"/>
			<point x="1362" y="388" type="line"/>
			<point x="681" y="388" type="line"/>
		</contour>
		<contour>
			<point x="0" y="388" type="line"/>
			<point x="681" y="388" type="line"/>
			<point x="681" y="1069" type="line"/>
			<point x="0" y="1069" type="line"/>
		</contour>
	</outline>
</glyph>
<glyph name="blackRightPointingIsoscelesRightTriangle" format="2">
	<unicode hex="1F782"/>
	<advance width="490"/>
	<outline>
		<contour>
			<point x="51" y="-32" type="line"/>
			<point x="439" y="357" type="line"/>
			<point x="51" y="746" type="line"/>
		</contour>
	</outline>
</glyph>
<glyph name="blackTinySquare" format="2">
	<unicode hex="1F78C"/>
	<advance width="234"/>
	<outline>
		<contour>
			<point x="51" y="296" type="line"/>
			<point x="183" y="296" type="line"/>
			<point x="183" y="428" type="line"/>
			<point x="51" y="428" type="line"/>
		</contour>
	</outline>
</glyph>
<glyph name="mediumWhiteSquareDuplicate" format="2">
	<unicode hex="1F78F"/>
	<advance width="834"/>
	<outline>
		<contour>
			<point x="51" y="-4" type="line"/>
			<point x="783" y="-4" type="line"/>
			<point x="783" y="728" type="line"/>
			<point x="51" y="728" type="line"/>
		</contour>
		<contour>
			<point x="163" y="108" type="line"/>
			<point x="163" y="616" type="line"/>
			<point x="671" y="616" type="line"/>
			<point x="671" y="108" type="line"/>
		</contour>
	</outline>
</glyph>
<glyph name="blackTinyLozenge" format="2">
	<unicode hex="1F79D"/>
	<advance width="216"/>
	<outline>
		<contour>
			<point x="108" y="266" type="line"/>
			<point x="165" y="363" type="line"/>
			<point x="108" y="458" type="line"/>
			<point x="51" y="363" type="line"/>
		</contour>
	</outline>
</glyph>
<glyph name="blackMediumSmallLozenge" format="2">
	<unicode hex="1F79F"/>
	<advance width="450"/>
	<outline>
		<contour>
			<point x="225" y="70" type="line"/>
			<point x="399" y="363" type="line"/>
			<point x="225" y="654" type="line"/>
			<point x="51" y="363" type="line"/>
		</contour>
	</outline>
</glyph>
<glyph name="lightGreekCross" format="2">
	<unicode hex="1F7A2"/>
	<advance width="853"/>
	<outline>
		<contour>
			<point x="51" y="327" type="line"/>
			<point x="802" y="327" type="line"/>
			<point x="802" y="391" type="line"/>
			<point x="51" y="391" type="line"/>
		</contour>
		<contour>
			<point x="395" y="-17" type="line"/>
			<point x="459" y="-17" type="line"/>
			<point x="459" y="734" type="line"/>
			<point x="395" y="734" type="line"/>
		</contour>
	</outline>
</glyph>
<glyph name="heavyEightPointedBlackStar" format="2">
	<unicode hex="1F7CF"/>
	<advance width="792"/>
	<outline>
		<contour>
			<point x="396" y="17" type="line"/>
			<point x="471" y="179" type="line"/>
			<point x="639" y="118" type="line"/>
			<point x="578" y="287" type="line"/>
			<point x="741" y="362" type="line"/>
			<point x="579" y="438" type="line"/>
			<point x="639" y="605" type="line"/>
			<point x="471" y="545" type="line"/>
			<point x="396" y="707" type="line"/>
			<point x="320" y="544" type="line"/>
			<point x="152" y="605" type="line"/>
			<point x="213" y="438" type="line"/>
			<point x="51" y="362" type="line"/>
			<point x="212" y="286" type="line"/>
			<point x="152" y="118" type="line"/>
			<point x="320" y="179" type="line"/>
		</contour>
	</outline>
</glyph>
<glyph name="lightTwelvePointedBlackStar" format="2">
	<unicode hex="1F7D2"/>
	<advance width="912"/>
	<outline>
		<contour>
			<point x="347" y="-43" type="line"/>
			<point x="456" y="189" type="line"/>
			<point x="564" y="-43" type="line"/>
			<point x="543" y="212" type="line"/>
			<point x="752" y="66" type="line"/>
			<point x="606" y="275" type="line"/>
			<point x="861" y="254" type="line"/>
			<point x="629" y="362" type="line"/>
			<point x="861" y="470" type="line"/>
			<point x="606" y="449" type="line"/>
			<point x="752" y="658" type="line"/>
			<point x="543" y="512" type="line"/>
			<point x="564" y="767" type="line"/>
			<point x="456" y="535" type="line"/>
			<point x="347" y="767" type="line"/>
			<point x="369" y="512" type="line"/>
			<point x="159" y="658" type="line"/>
			<point x="306" y="449" type="line"/>
			<point x="51" y="470" type="line"/>
			<point x="282" y="362" type="line"/>
			<point x="51" y="254" type="line"/>
			<point x="306" y="275" type="line"/>
			<point x="159" y="66" type="line"/>
			<point x="369" y="212" type="line"/>
		</contour>
	</outline>
</glyph>
<glyph name="u1F7E9" format="2">
	<advance width="1000"/>
	<unicode hex="1F7E9"/>
	<outline>
		<contour>
			<point x="795" y="-26" type="line"/>
			<point x="858" y="-26" type="line"/>
			<point x="112" y="720" type="line"/>
			<point x="112" y="657" type="line"/>
		</contour>
		<contour>
			<point x="298" y="-26" type="line"/>
			<point x="360" y="-26" type="line"/>
			<point x="112" y="222" type="line"/>
			<point x="112" y="160" type="line"/>
		</contour>
		<contour>
			<point x="422" y="-26" type="line"/>
			<point x="484" y="-26" type="line"/>
			<point x="112" y="346" type="line"/>
			<point x="112" y="284" type="line"/>
		</contour>
		<contour>
			<point x="547" y="-26" type="line"/>
			<point x="609" y="-26" type="line"/>
			<point x="112" y="471" type="line"/>
			<point x="112" y="409" type="line"/>
		</contour>
		<contour>
			<point x="671" y="-26" type="line"/>
			<point x="733" y="-26" type="line"/>
			<point x="112" y="595" type="line"/>
			<point x="112" y="533" type="line"/>
		</contour>
		<contour>
			<point x="888" y="6" type="line"/>
			<point x="888" y="68" type="line"/>
			<point x="206" y="750" type="line"/>
			<point x="144" y="750" type="line"/>
		</contour>
		<contour>
			<point x="888" y="130" type="line"/>
			<point x="888" y="193" type="line"/>
			<point x="331" y="750" type="line"/>
			<point x="268" y="750" type="line"/>
		</contour>
		<contour>
			<point x="888" y="255" type="line"/>
			<point x="888" y="317" type="line"/>
			<point x="455" y="750" type="line"/>
			<point x="393" y="750" type="line"/>
		</contour>
		<contour>
			<point x="888" y="379" type="line"/>
			<point x="888" y="441" type="line"/>
			<point x="579" y="750" type="line"/>
			<point x="517" y="750" type="line"/>
		</contour>
		<contour>
			<point x="888" y="504" type="line"/>
			<point x="888" y="566" type="line"/>
			<point x="704" y="750" type="line"/>
			<point x="642" y="750" type="line"/>
		</contour>
		<contour>
			<point x="112" y="-26" type="line"/>
			<point x="888" y="-26" type="line"/>
			<point x="888" y="750" type="line"/>
			<point x="112" y="750" type="line"/>
		</contour>
		<contour>
			<point x="170" y="32" type="line"/>
			<point x="170" y="692" type="line"/>
			<point x="830" y="692" type="line"/>
			<point x="830" y="32" type="line"/>
		</contour>
	</outline>
</glyph>
<glyph name="leftArrowwithtrianglearrowhead" format="2">
	<unicode hex="1F800"/>
	<advance width="812"/>
	<outline>
		<contour>
			<point x="214" y="215" type="line"/>
			<point x="214" y="321" type="line"/>
			<point x="761" y="321" type="line"/>
			<point x="761" y="370" type="line"/>
			<point x="214" y="370" type="line"/>
			<point x="214" y="476" type="line"/>
			<point x="51" y="346" type="line"/>
		</contour>
	</outline>
</glyph>
<glyph name="upArrowwithtrianglearrowhead" format="2">
	<unicode hex="1F801"/>
	<advance width="363"/>
	<outline>
		<contour>
			<point x="157" y="-9" type="line"/>
			<point x="206" y="-9" type="line"/>
			<point x="206" y="537" type="line"/>
			<point x="312" y="537" type="line"/>
			<point x="182" y="701" type="line"/>
			<point x="51" y="537" type="line"/>
			<point x="157" y="537" type="line"/>
		</contour>
	</outline>
</glyph>
<glyph name="downArrowWithMediumTriangleArrowhead" format="2">
	<unicode hex="1F807"/>
	<advance width="547"/>
	<outline>
		<contour>
			<point x="274" y="-11" type="line"/>
			<point x="496" y="269" type="line"/>
			<point x="316" y="269" type="line"/>
			<point x="316" y="702" type="line"/>
			<point x="232" y="702" type="line"/>
			<point x="232" y="269" type="line"/>
			<point x="51" y="269" type="line"/>
		</contour>
	</outline>
</glyph>
<glyph name="leftArrowWithLargeTriangleArrowhead" format="2">
	<unicode hex="1F808"/>
	<advance width="929"/>
	<outline>
		<contour>
			<point x="507" y="-17" type="line"/>
			<point x="507" y="276" type="line"/>
			<point x="878" y="276" type="line"/>
			<point x="878" y="414" type="line"/>
			<point x="507" y="414" type="line"/>
			<point x="507" y="708" type="line"/>
			<point x="51" y="346" type="line"/>
		</contour>
	</outline>
</glyph>
<glyph name="rightArrowWithLargeTriangleArrowhead" format="2">
	<unicode hex="1F80A"/>
	<advance width="929"/>
	<outline>
		<contour>
			<point x="423" y="-17" type="line"/>
			<point x="878" y="346" type="line"/>
			<point x="423" y="708" type="line"/>
			<point x="423" y="414" type="line"/>
			<point x="51" y="414" type="line"/>
			<point x="51" y="276" type="line"/>
			<point x="423" y="276" type="line"/>
		</contour>
	</outline>
</glyph>
<glyph name="heavyRightArrowWithEquilateralArrowhead" format="2">
	<unicode hex="1F81A"/>
	<advance width="875"/>
	<outline>
		<contour>
			<point x="481" y="146" type="line"/>
			<point x="824" y="345" type="line"/>
			<point x="481" y="545" type="line"/>
		</contour>
		<contour>
			<point x="51" y="268" type="line"/>
			<point x="497" y="268" type="line"/>
			<point x="497" y="423" type="line"/>
			<point x="51" y="423" type="line"/>
		</contour>
	</outline>
</glyph>
<glyph name="upTriangleArrowWithNarrowShaft" format="2">
	<unicode hex="1F821"/>
	<advance width="547"/>
	<outline>
		<contour>
			<point x="251" y="-30" type="line"/>
			<point x="296" y="-30" type="line"/>
			<point x="296" y="442" type="line"/>
			<point x="496" y="442" type="line"/>
			<point x="274" y="722" type="line"/>
			<point x="51" y="442" type="line"/>
			<point x="251" y="442" type="line"/>
		</contour>
	</outline>
</glyph>
<glyph name="upTriangleArrowWithMediumShaft" format="2">
	<unicode hex="1F825"/>
	<advance width="547"/>
	<outline>
		<contour>
			<point x="231" y="-11" type="line"/>
			<point x="315" y="-11" type="line"/>
			<point x="315" y="422" type="line"/>
			<point x="496" y="422" type="line"/>
			<point x="274" y="702" type="line"/>
			<point x="51" y="422" type="line"/>
			<point x="231" y="422" type="line"/>
		</contour>
	</outline>
</glyph>
<glyph name="upTriangleArrowWithBoldShaft" format="2">
	<unicode hex="1F829"/>
	<advance width="547"/>
	<outline>
		<contour>
			<point x="192" y="-11" type="line"/>
			<point x="354" y="-11" type="line"/>
			<point x="354" y="422" type="line"/>
			<point x="496" y="422" type="line"/>
			<point x="274" y="702" type="line"/>
			<point x="51" y="422" type="line"/>
			<point x="192" y="422" type="line"/>
		</contour>
	</outline>
</glyph>
<glyph name="upTriangleArrowWithHeavyShaft" format="2">
	<unicode hex="1F82D"/>
	<advance width="662"/>
	<outline>
		<contour>
			<point x="204" y="-30" type="line"/>
			<point x="458" y="-30" type="line"/>
			<point x="458" y="403" type="line"/>
			<point x="611" y="403" type="line"/>
			<point x="331" y="683" type="line"/>
			<point x="51" y="403" type="line"/>
			<point x="204" y="403" type="line"/>
		</contour>
	</outline>
</glyph>
<glyph name="upFingerPostArrow" format="2">
	<unicode hex="1F835"/>
	<advance width="570"/>
	<outline>
		<contour>
			<point x="51" y="7" type="line"/>
			<point x="519" y="7" type="line"/>
			<point x="519" y="460" type="line"/>
			<point x="285" y="717" type="line"/>
			<point x="51" y="460" type="line"/>
		</contour>
	</outline>
</glyph>
<glyph name="downFingerPostArrow" format="2">
	<unicode hex="1F837"/>
	<advance width="570"/>
	<outline>
		<contour>
			<point x="285" y="7" type="line"/>
			<point x="519" y="264" type="line"/>
			<point x="519" y="716" type="line"/>
			<point x="51" y="716" type="line"/>
			<point x="51" y="264" type="line"/>
		</contour>
	</outline>
</glyph>
<glyph name="upCompressedArrow" format="2">
	<unicode hex="1F83D"/>
	<advance width="794"/>
	<outline>
		<contour>
			<point x="223" y="217" type="line"/>
			<point x="572" y="217" type="line"/>
			<point x="572" y="315" type="line"/>
			<point x="743" y="315" type="line"/>
			<point x="397" y="501" type="line"/>
			<point x="51" y="315" type="line"/>
			<point x="223" y="315" type="line"/>
		</contour>
	</outline>
</glyph>
<glyph name="downCompressedArrow" format="2">
	<unicode hex="1F83F"/>
	<advance width="794"/>
	<outline>
		<contour>
			<point x="397" y="217" type="line"/>
			<point x="743" y="403" type="line"/>
			<point x="572" y="403" type="line"/>
			<point x="572" y="501" type="line"/>
			<point x="223" y="501" type="line"/>
			<point x="223" y="403" type="line"/>
			<point x="51" y="403" type="line"/>
		</contour>
	</outline>
</glyph>
<glyph name="downSansSerifArrow" format="2">
	<unicode hex="1F853"/>
	<advance width="520"/>
	<outline>
		<contour>
			<point x="260" y="-30" type="line"/>
			<point x="468" y="156" type="line"/>
			<point x="468" y="223" type="line"/>
			<point x="273" y="53" type="line"/>
			<point x="290" y="34" type="line"/>
			<point x="290" y="709" type="line"/>
			<point x="231" y="709" type="line"/>
			<point x="231" y="34" type="line"/>
			<point x="246" y="54" type="line"/>
			<point x="51" y="223" type="line"/>
			<point x="51" y="156" type="line"/>
		</contour>
	</outline>
</glyph>
<glyph name="wideHeadedSouthEastMediumBarbArrow" format="2">
	<unicode hex="1F876"/>
	<advance width="668"/>
	<outline>
		<contour>
			<point x="182" y="37" type="line"/>
			<point x="594" y="61" type="line"/>
			<point x="617" y="472" type="line"/>
			<point x="490" y="599" type="line"/>
			<point x="468" y="270" type="line"/>
			<point x="134" y="603" type="line"/>
			<point x="51" y="520" type="line"/>
			<point x="385" y="187" type="line"/>
			<point x="55" y="164" type="line"/>
		</contour>
	</outline>
</glyph>
<glyph name="wideHeadedUpHeavyBarbArrow" format="2">
	<unicode hex="1F879"/>
	<advance width="718"/>
	<outline>
		<contour>
			<point x="284" y="-35" type="line"/>
			<point x="434" y="-35" type="line"/>
			<point x="434" y="470" type="line"/>
			<point x="381" y="432" type="line"/>
			<point x="667" y="146" type="line"/>
			<point x="667" y="367" type="line"/>
			<point x="359" y="675" type="line"/>
			<point x="51" y="367" type="line"/>
			<point x="51" y="146" type="line"/>
			<point x="337" y="432" type="line"/>
			<point x="284" y="470" type="line"/>
		</contour>
	</outline>
</glyph>
<glyph name="wideHeadedDownVeryHeavyBarbArrow" format="2">
	<unicode hex="1F883"/>
	<advance width="718"/>
	<outline>
		<contour>
			<point x="359" y="-34" type="line"/>
			<point x="667" y="240" type="line"/>
			<point x="667" y="498" type="line"/>
			<point x="401" y="267" type="line"/>
			<point x="457" y="269" type="line"/>
			<point x="457" y="674" type="line"/>
			<point x="261" y="674" type="line"/>
			<point x="261" y="269" type="line"/>
			<point x="317" y="267" type="line"/>
			<point x="51" y="498" type="line"/>
			<point x="51" y="240" type="line"/>
		</contour>
	</outline>
</glyph>
<glyph name="leftTriangleArrowhead" format="2">
	<unicode hex="1F890"/>
	<advance width="381"/>
	<outline>
		<contour>
			<point x="330" y="98" type="line"/>
			<point x="330" y="542" type="line"/>
			<point x="51" y="320" type="line"/>
		</contour>
	</outline>
</glyph>
<glyph name="downWhiteArrowWithinTriangleArrowhead" format="2">
	<unicode hex="1F897"/>
	<advance width="828"/>
	<outline>
		<contour>
			<point x="414" y="434" type="line"/>
			<point x="777" y="889" type="line"/>
			<point x="453" y="889" type="line"/>
			<point x="453" y="783" type="line"/>
			<point x="558" y="783" type="line"/>
			<point x="414" y="603" type="line"/>
			<point x="270" y="783" type="line"/>
			<point x="375" y="783" type="line"/>
			<point x="375" y="889" type="line"/>
			<point x="51" y="889" type="line"/>
		</contour>
	</outline>
</glyph>
<glyph name="downArrowWithNotchedTail" format="2">
	<unicode hex="1F89B"/>
	<advance width="526"/>
	<outline>
		<contour>
			<point x="263" y="18" type="line"/>
			<point x="475" y="287" type="line"/>
			<point x="370" y="287" type="line"/>
			<point x="370" y="702" type="line"/>
			<point x="263" y="595" type="line"/>
			<point x="156" y="702" type="line"/>
			<point x="156" y="287" type="line"/>
			<point x="51" y="287" type="line"/>
		</contour>
	</outline>
</glyph>
<glyph name="heavyArrowShaftWidthTwoThirds" format="2">
	<unicode hex="1F89D"/>
	<advance width="336"/>
	<outline>
		<contour>
			<point x="51" y="215" type="line"/>
			<point x="285" y="215" type="line"/>
			<point x="285" y="469" type="line"/>
			<point x="51" y="469" type="line"/>
		</contour>
	</outline>
</glyph>
<glyph name="u1F8B0" format="2">
	<advance width="1000"/>
	<unicode hex="1F8B0"/>
	<outline>
		<contour>
			<point x="570" y="0" type="line"/>
			<point x="660" y="0" type="line"/>
			<point x="660" y="381" type="line"/>
			<point x="411" y="629" type="line"/>
			<point x="660" y="629" type="line"/>
			<point x="660" y="714" type="line"/>
			<point x="262" y="714" type="line"/>
			<point x="262" y="316" type="line"/>
			<point x="348" y="316" type="line"/>
			<point x="348" y="569" type="line"/>
			<point x="570" y="345" type="line"/>
		</contour>
	</outline>
</glyph>
<glyph name="u1FA3E" format="2">
	<unicode hex="1FA3E"/>
	<advance width="1000"/>
	<outline>
		<contour>
			<point x="878" y="64" type="line"/>
			<point x="878" y="692" type="line"/>
			<point x="841" y="692" type="line" smooth="yes"/>
			<point x="686" y="692"/>
			<point x="559" y="616"/>
			<point x="518" y="492" type="curve"/>
			<point x="489" y="537"/>
			<point x="452" y="560"/>
			<point x="405" y="560" type="curve" smooth="yes"/>
			<point x="335" y="560"/>
			<point x="280" y="513"/>
			<point x="255" y="433" type="curve"/>
			<point x="246" y="460"/>
			<point x="221" y="479"/>
			<point x="190" y="479" type="curve" smooth="yes"/>
			<point x="149" y="479"/>
			<point x="123" y="439"/>
			<point x="123" y="378" type="curve" smooth="yes"/>
			<point x="123" y="316"/>
			<point x="149" y="277"/>
			<point x="190" y="277" type="curve" smooth="yes"/>
			<point x="221" y="277"/>
			<point x="245" y="295"/>
			<point x="255" y="323" type="curve"/>
			<point x="280" y="242"/>
			<point x="335" y="196"/>
			<point x="405" y="196" type="curve" smooth="yes"/>
			<point x="452" y="196"/>
			<point x="489" y="219"/>
			<point x="518" y="264" type="curve"/>
			<point x="559" y="142"/>
			<point x="685" y="64"/>
			<point x="841" y="64" type="curve" smooth="yes"/>
		</contour>
		<contour>
			<point x="816" y="116" type="line"/>
			<point x="792" y="116" type="line" smooth="yes"/>
			<point x="691" y="116"/>
			<point x="607" y="166"/>
			<point x="580" y="248" type="curve"/>
			<point x="623" y="189"/>
			<point x="689" y="154"/>
			<point x="802" y="150" type="curve" smooth="yes"/>
			<point x="816" y="150" type="line"/>
		</contour>
		<contour>
			<point x="482" y="284" type="curve"/>
			<point x="473" y="258"/>
			<point x="438" y="233"/>
			<point x="400" y="233" type="curve" smooth="yes"/>
			<point x="342" y="233"/>
			<point x="295" y="282"/>
			<point x="293" y="317" type="curve"/>
			<point x="319" y="276"/>
			<point x="353" y="258"/>
			<point x="399" y="258" type="curve" smooth="yes"/>
			<point x="436" y="258"/>
			<point x="457" y="266"/>
		</contour>
		<contour>
			<point x="234" y="323" type="curve"/>
			<point x="232" y="311"/>
			<point x="214" y="298"/>
			<point x="195" y="298" type="curve" smooth="yes"/>
			<point x="167" y="298"/>
			<point x="145" y="324"/>
			<point x="145" y="339" type="curve"/>
			<point x="157" y="320"/>
			<point x="173" y="310"/>
			<point x="194" y="310" type="curve" smooth="yes"/>
			<point x="213" y="310"/>
			<point x="227" y="314"/>
		</contour>
	</outline>
</glyph>
<glyph name="u1FA81" format="2">
	<unicode hex="1FA81"/>
	<advance width="1000"/>
	<outline>
		<contour>
			<point x="517" y="269" type="line"/>
			<point x="677" y="384"/>
			<point x="829" y="466"/>
			<point x="937" y="515" type="curve"/>
			<point x="943" y="531" type="line"/>
			<point x="881" y="641"/>
			<point x="832" y="767"/>
			<point x="819" y="834" type="curve"/>
			<point x="799" y="840" type="line"/>
			<point x="726" y="801"/>
			<point x="591" y="746"/>
			<point x="475" y="726" type="curve"/>
			<point x="464" y="708" type="line"/>
			<point x="484" y="567"/>
			<point x="502" y="420"/>
			<point x="510" y="278" type="curve"/>
		</contour>
		<contour>
			<point x="113" y="-109" type="curve" smooth="yes"/>
			<point x="117" y="-108"/>
			<point x="118" y="-99"/>
			<point x="118" y="-87" type="curve" smooth="yes"/>
			<point x="118" y="-79"/>
			<point x="117" y="-71"/>
			<point x="117" y="-62" type="curve"/>
			<point x="143" y="-62"/>
			<point x="169" y="-63"/>
			<point x="168" y="-53" type="curve" smooth="yes"/>
			<point x="166" y="-34"/>
			<point x="137" y="1"/>
			<point x="122" y="1" type="curve" smooth="yes"/>
			<point x="111" y="1"/>
			<point x="112" y="-18"/>
			<point x="112" y="-55" type="curve"/>
			<point x="91" y="-55"/>
			<point x="69" y="-54"/>
			<point x="64" y="-66" type="curve" smooth="yes"/>
			<point x="59" y="-77"/>
			<point x="96" y="-112"/>
		</contour>
		<contour>
			<point x="122" y="44" type="curve" smooth="yes"/>
			<point x="123" y="44" type="line" smooth="yes"/>
			<point x="148" y="46"/>
			<point x="197" y="81"/>
			<point x="189" y="97" type="curve" smooth="yes"/>
			<point x="185" y="105"/>
			<point x="162" y="107"/>
			<point x="123" y="108" type="curve"/>
			<point x="124" y="132"/>
			<point x="126" y="155"/>
			<point x="114" y="162" type="curve" smooth="yes"/>
			<point x="100" y="170"/>
			<point x="54" y="130"/>
			<point x="58" y="109" type="curve" smooth="yes"/>
			<point x="59" y="104"/>
			<point x="86" y="103"/>
			<point x="114" y="103" type="curve"/>
			<point x="113" y="92"/>
			<point x="113" y="82"/>
			<point x="113" y="72" type="curve" smooth="yes"/>
			<point x="113" y="57"/>
			<point x="115" y="44"/>
		</contour>
		<contour>
			<point x="216" y="-147" type="curve"/>
			<point x="230" y="-123" type="line"/>
			<point x="149" y="-79"/>
			<point x="93" y="-23"/>
			<point x="93" y="35" type="curve" smooth="yes"/>
			<point x="93" y="80"/>
			<point x="132" y="109"/>
			<point x="206" y="113" type="curve" smooth="yes"/>
			<point x="394" y="122"/>
			<point x="485" y="166"/>
			<point x="541" y="299" type="curve"/>
			<point x="524" y="306" type="line"/>
			<point x="462" y="170"/>
			<point x="367" y="140"/>
			<point x="206" y="131" type="curve" smooth="yes"/>
			<point x="121" y="126"/>
			<point x="70" y="93"/>
			<point x="70" y="31" type="curve" smooth="yes"/>
			<point x="70" y="-35"/>
			<point x="126" y="-100"/>
		</contour>
		<contour>
			<point x="297" y="65" type="curve" smooth="yes"/>
			<point x="326" y="65"/>
			<point x="358" y="74"/>
			<point x="358" y="88" type="curve" smooth="yes"/>
			<point x="358" y="99"/>
			<point x="336" y="115"/>
			<point x="300" y="136" type="curve"/>
			<point x="311" y="155"/>
			<point x="324" y="172"/>
			<point x="324" y="186" type="curve" smooth="yes"/>
			<point x="324" y="189"/>
			<point x="323" y="191"/>
			<point x="322" y="194" type="curve"/>
			<point x="319" y="199"/>
			<point x="311" y="201"/>
			<point x="301" y="201" type="curve" smooth="yes"/>
			<point x="276" y="201"/>
			<point x="238" y="189"/>
			<point x="234" y="173" type="curve" smooth="yes"/>
			<point x="232" y="166"/>
			<point x="260" y="151"/>
			<point x="287" y="135" type="curve"/>
			<point x="272" y="114"/>
			<point x="257" y="92"/>
			<point x="257" y="80" type="curve" smooth="yes"/>
			<point x="257" y="76"/>
			<point x="258" y="74"/>
			<point x="261" y="72" type="curve" smooth="yes"/>
			<point x="270" y="67"/>
			<point x="283" y="65"/>
		</contour>
		<contour>
			<point x="458" y="111" type="curve" smooth="yes"/>
			<point x="492" y="111"/>
			<point x="561" y="163"/>
			<point x="549" y="184" type="curve" smooth="yes"/>
			<point x="543" y="195"/>
			<point x="510" y="197"/>
			<point x="457" y="199" type="curve"/>
			<point x="457" y="214"/>
			<point x="458" y="228"/>
			<point x="458" y="240" type="curve" smooth="yes"/>
			<point x="458" y="258"/>
			<point x="455" y="272"/>
			<point x="440" y="272" type="curve" smooth="yes"/>
			<point x="414" y="272"/>
			<point x="361" y="226"/>
			<point x="368" y="200" type="curve" smooth="yes"/>
			<point x="370" y="193"/>
			<point x="408" y="192"/>
			<point x="446" y="191" type="curve"/>
			<point x="445" y="177"/>
			<point x="444" y="162"/>
			<point x="444" y="150" type="curve" smooth="yes"/>
			<point x="444" y="127"/>
			<point x="447" y="111"/>
		</contour>
		<contour>
			<point x="541" y="314" type="line"/>
			<point x="528" y="321" type="line"/>
			<point x="796" y="830" type="line"/>
			<point x="810" y="824" type="line"/>
		</contour>
		<contour>
			<point x="674" y="628" type="line"/>
			<point x="477" y="705" type="line"/>
			<point x="485" y="718" type="line"/>
			<point x="681" y="639" type="line"/>
		</contour>
		<contour>
			<point x="926" y="522" type="line"/>
			<point x="712" y="613" type="line"/>
			<point x="717" y="625" type="line"/>
			<point x="931" y="534" type="line"/>
		</contour>
	</outline>
</glyph>
<glyph name="u1FB03" format="2">
	<unicode hex="1FB03"/>
	<advance width="1000"/>
	<outline>
		<contour>
			<point x="0" y="172" type="line"/>
			<point x="500" y="172" type="line"/>
			<point x="500" y="506" type="line"/>
			<point x="0" y="506" type="line"/>
		</contour>
	</outline>
</glyph>
<glyph name="u1FB04" format="2">
  <advance width="1000"/>
  <unicode hex="1FB04"/>
  <outline>
    <contour>
      <point x="0" y="172" type="line"/>
      <point x="500" y="172" type="line"/>
      <point x="500" y="839" type="line"/>
      <point x="0" y="839" type="line"/>
    </contour>
  </outline>
</glyph>
<glyph name="u1FB0E" format="2">
	<advance width="1000"/>
	<unicode hex="1FB0E"/>
	<outline>
		<contour>
			<point x="0" y="172" type="line"/>
			<point x="1000" y="172" type="line"/>
			<point x="1000" y="839" type="line"/>
			<point x="0" y="839" type="line"/>
		</contour>
	</outline>
</glyph>
<glyph name="u1FB1E" format="2">
  <advance width="1000"/>
  <unicode hex="1FB1E"/>
  <outline>
    <contour>
      <point x="500" y="-161" type="line"/>
      <point x="1000" y="-161" type="line"/>
      <point x="1000" y="172" type="line"/>
      <point x="500" y="172" type="line"/>
    </contour>
  </outline>
</glyph>
<glyph name="u1FB29" format="2">
	<unicode hex="1FB29"/>
	<advance width="1000"/>
	<outline>
		<contour>
			<point x="500" y="-161" type="line"/>
			<point x="1000" y="-161" type="line"/>
			<point x="1000" y="506" type="line"/>
			<point x="0" y="506" type="line"/>
			<point x="0" y="172" type="line"/>
			<point x="500" y="172" type="line"/>
		</contour>
	</outline>
</glyph>
<glyph name="u1FB32" format="2">
	<unicode hex="1FB32"/>
	<advance width="1000"/>
	<outline>
		<contour>
			<point x="0" y="-161" type="line"/>
			<point x="1000" y="-161" type="line"/>
			<point x="1000" y="172" type="line"/>
			<point x="500" y="172" type="line"/>
			<point x="500" y="839" type="line"/>
			<point x="0" y="839" type="line"/>
		</contour>
	</outline>
</glyph>
<glyph name="u1FB40" format="2">
	<advance width="1000"/>
	<unicode hex="1FB40"/>
	<outline>
		<contour>
			<point x="0" y="-161" type="line"/>
			<point x="500" y="-161" type="line"/>
			<point x="0" y="839" type="line"/>
		</contour>
	</outline>
</glyph>
<glyph name="u1FB43" format="2">
	<advance width="1000"/>
	<unicode hex="1FB43"/>
	<outline>
		<contour>
			<point x="0" y="-161" type="line"/>
			<point x="1000" y="-161" type="line"/>
			<point x="1000" y="839" type="line"/>
			<point x="500" y="839" type="line"/>
			<point x="0" y="172" type="line"/>
		</contour>
	</outline>
</glyph>
<glyph name="u1FB48" format="2">
	<unicode hex="1FB48"/>
	<advance width="1000"/>
	<outline>
		<contour>
			<point x="0" y="-161" type="line"/>
			<point x="1000" y="-161" type="line"/>
			<point x="1000" y="172" type="line"/>
		</contour>
	</outline>
</glyph>
<glyph name="u1FB4B" format="2">
  <advance width="1000"/>
  <unicode hex="1FB4B"/>
  <outline>
    <contour>
      <point x="500" y="-161" type="line"/>
      <point x="1000" y="-161" type="line"/>
      <point x="1000" y="839" type="line"/>
    </contour>
  </outline>
</glyph>
<glyph name="u1FB4F" format="2">
	<unicode hex="1FB4F"/>
	<advance width="1000"/>
	<outline>
		<contour>
			<point x="0" y="-161" type="line"/>
			<point x="1000" y="-161" type="line"/>
			<point x="1000" y="172" type="line"/>
			<point x="0" y="839" type="line"/>
		</contour>
	</outline>
</glyph>
<glyph name="u1FB53" format="2">
  <advance width="1000"/>
  <unicode hex="1FB53"/>
  <outline>
    <contour>
      <point x="1000" y="-161" type="line"/>
      <point x="1000" y="839" type="line"/>
      <point x="0" y="839" type="line"/>
      <point x="0" y="172" type="line"/>
    </contour>
  </outline>
</glyph>
<glyph name="u1FB54" format="2">
	<advance width="1000"/>
	<unicode hex="1FB54"/>
	<outline>
		<contour>
			<point x="500" y="-161" type="line"/>
			<point x="1000" y="-161" type="line"/>
			<point x="1000" y="839" type="line"/>
			<point x="0" y="839" type="line"/>
			<point x="0" y="506" type="line"/>
		</contour>
	</outline>
</glyph>
<glyph name="u1FB5B" format="2">
	<advance width="1000"/>
	<unicode hex="1FB5B"/>
	<outline>
		<contour>
			<point x="0" y="-161" type="line"/>
			<point x="500" y="839" type="line"/>
			<point x="0" y="839" type="line"/>
		</contour>
	</outline>
</glyph>
<glyph name="u1FB62" format="2">
	<advance width="1000"/>
	<unicode hex="1FB62"/>
	<outline>
		<contour>
			<point x="1000" y="506" type="line"/>
			<point x="1000" y="839" type="line"/>
			<point x="500" y="839" type="line"/>
		</contour>
	</outline>
</glyph>
<glyph name="u1FB63" format="2">
  <advance width="1000"/>
  <unicode hex="1FB63"/>
  <outline>
    <contour>
      <point x="1000" y="506" type="line"/>
      <point x="1000" y="839" type="line"/>
      <point x="0" y="839" type="line"/>
    </contour>
  </outline>
</glyph>
<glyph name="u1FB65" format="2">
	<unicode hex="1FB65"/>
	<advance width="1000"/>
	<outline>
		<contour>
			<point x="1000" y="172" type="line"/>
			<point x="1000" y="839" type="line"/>
			<point x="0" y="839" type="line"/>
		</contour>
	</outline>
</glyph>
<glyph name="u1FB6C" format="2">
	<advance width="1000"/>
	<unicode hex="1FB6C"/>
	<outline>
		<contour>
			<point x="0" y="-161" type="line"/>
			<point x="500" y="339" type="line"/>
			<point x="0" y="839" type="line"/>
		</contour>
	</outline>
</glyph>
<glyph name="u1FB6E" format="2">
  <advance width="1000"/>
  <unicode hex="1FB6E"/>
  <outline>
    <contour>
      <point x="1000" y="-161" type="line"/>
      <point x="1000" y="839" type="line"/>
      <point x="500" y="339" type="line"/>
    </contour>
  </outline>
</glyph>
<glyph name="u1FB6F" format="2">
	<unicode hex="1FB6F"/>
	<advance width="1000"/>
	<outline>
		<contour>
			<point x="0" y="-161" type="line"/>
			<point x="1000" y="-161" type="line"/>
			<point x="500" y="339" type="line"/>
		</contour>
	</outline>
</glyph>
<glyph name="u1FB70" format="2">
	<unicode hex="1FB70"/>
	<advance width="1000"/>
	<outline>
		<contour>
			<point x="125" y="-161" type="line"/>
			<point x="250" y="-161" type="line"/>
			<point x="250" y="839" type="line"/>
			<point x="125" y="839" type="line"/>
		</contour>
	</outline>
</glyph>
<glyph name="u1FB72" format="2">
	<advance width="1000"/>
	<unicode hex="1FB72"/>
	<outline>
		<contour>
			<point x="375" y="-161" type="line"/>
			<point x="500" y="-161" type="line"/>
			<point x="500" y="839" type="line"/>
			<point x="375" y="839" type="line"/>
		</contour>
	</outline>
</glyph>
<glyph name="u1FB74" format="2">
	<unicode hex="1FB74"/>
	<advance width="1000"/>
	<outline>
		<contour>
			<point x="625" y="-161" type="line"/>
			<point x="750" y="-161" type="line"/>
			<point x="750" y="839" type="line"/>
			<point x="625" y="839" type="line"/>
		</contour>
	</outline>
</glyph>
<glyph name="u1FB75" format="2">
	<unicode hex="1FB75"/>
	<advance width="1000"/>
	<outline>
		<contour>
			<point x="750" y="-161" type="line"/>
			<point x="875" y="-161" type="line"/>
			<point x="875" y="839" type="line"/>
			<point x="750" y="839" type="line"/>
		</contour>
	</outline>
</glyph>
<glyph name="u1FB76" format="2">
  <advance width="1000"/>
  <unicode hex="1FB76"/>
  <outline>
    <contour>
      <point x="0" y="589" type="line"/>
      <point x="1000" y="589" type="line"/>
      <point x="1000" y="714" type="line"/>
      <point x="0" y="714" type="line"/>
    </contour>
  </outline>
</glyph>
<glyph name="u1FB77" format="2">
	<unicode hex="1FB77"/>
	<advance width="1000"/>
	<outline>
		<contour>
			<point x="0" y="464" type="line"/>
			<point x="1000" y="464" type="line"/>
			<point x="1000" y="589" type="line"/>
			<point x="0" y="589" type="line"/>
		</contour>
	</outline>
</glyph>
<glyph name="u1FB78" format="2">
	<advance width="1000"/>
	<unicode hex="1FB78"/>
	<outline>
		<contour>
			<point x="0" y="339" type="line"/>
			<point x="1000" y="339" type="line"/>
			<point x="1000" y="464" type="line"/>
			<point x="0" y="464" type="line"/>
		</contour>
	</outline>
</glyph>
<glyph name="u1FB79" format="2">
	<unicode hex="1FB79"/>
	<advance width="1000"/>
	<outline>
		<contour>
			<point x="0" y="214" type="line"/>
			<point x="1000" y="214" type="line"/>
			<point x="1000" y="339" type="line"/>
			<point x="0" y="339" type="line"/>
		</contour>
	</outline>
</glyph>
<glyph name="u1FB7A" format="2">
  <advance width="1000"/>
  <unicode hex="1FB7A"/>
  <outline>
    <contour>
      <point x="0" y="89" type="line"/>
      <point x="1000" y="89" type="line"/>
      <point x="1000" y="214" type="line"/>
      <point x="0" y="214" type="line"/>
    </contour>
  </outline>
</glyph>
<glyph name="u1FB7B" format="2">
	<unicode hex="1FB7B"/>
	<advance width="1000"/>
	<outline>
		<contour>
			<point x="0" y="-36" type="line"/>
			<point x="1000" y="-36" type="line"/>
			<point x="1000" y="89" type="line"/>
			<point x="0" y="89" type="line"/>
		</contour>
	</outline>
</glyph>
<glyph name="u1FB7D" format="2">
	<advance width="1000"/>
	<unicode hex="1FB7D"/>
	<outline>
		<contour>
			<point x="0" y="714" type="line"/>
			<point x="1000" y="714" type="line"/>
			<point x="1000" y="839" type="line"/>
			<point x="0" y="839" type="line"/>
		</contour>
		<contour>
			<point x="0" y="-161" type="line"/>
			<point x="125" y="-161" type="line"/>
			<point x="125" y="839" type="line"/>
			<point x="0" y="839" type="line"/>
		</contour>
	</outline>
</glyph>
<glyph name="u1FB7E" format="2">
	<unicode hex="1FB7E"/>
	<advance width="1000"/>
	<outline>
		<contour>
			<point x="0" y="714" type="line"/>
			<point x="1000" y="714" type="line"/>
			<point x="1000" y="839" type="line"/>
			<point x="0" y="839" type="line"/>
		</contour>
		<contour>
			<point x="875" y="-161" type="line"/>
			<point x="1000" y="-161" type="line"/>
			<point x="1000" y="839" type="line"/>
			<point x="875" y="839" type="line"/>
		</contour>
	</outline>
</glyph>
<glyph name="u1FB82" format="2">
	<unicode hex="1FB82"/>
	<advance width="1000"/>
	<outline>
		<contour>
			<point x="0" y="589" type="line"/>
			<point x="1000" y="589" type="line"/>
			<point x="1000" y="839" type="line"/>
			<point x="0" y="839" type="line"/>
		</contour>
	</outline>
</glyph>
<glyph name="u1FB83" format="2">
  <advance width="1000"/>
  <unicode hex="1FB83"/>
  <outline>
    <contour>
      <point x="0" y="464" type="line"/>
      <point x="1000" y="464" type="line"/>
      <point x="1000" y="839" type="line"/>
      <point x="0" y="839" type="line"/>
    </contour>
  </outline>
</glyph>
<glyph name="u1FB84" format="2">
  <advance width="1000"/>
  <unicode hex="1FB84"/>
  <outline>
    <contour>
      <point x="0" y="214" type="line"/>
      <point x="1000" y="214" type="line"/>
      <point x="1000" y="839" type="line"/>
      <point x="0" y="839" type="line"/>
    </contour>
  </outline>
</glyph>
<glyph name="u1FB8A" format="2">
	<unicode hex="1FB8A"/>
	<advance width="1000"/>
	<outline>
		<contour>
			<point x="250" y="-161" type="line"/>
			<point x="1000" y="-161" type="line"/>
			<point x="1000" y="839" type="line"/>
			<point x="250" y="839" type="line"/>
		</contour>
	</outline>
</glyph>
<glyph name="u1FB8B" format="2">
	<unicode hex="1FB8B"/>
	<advance width="1000"/>
	<outline>
		<contour>
			<point x="125" y="-161" type="line"/>
			<point x="1000" y="-161" type="line"/>
			<point x="1000" y="839" type="line"/>
			<point x="125" y="839" type="line"/>
		</contour>
	</outline>
</glyph>
<glyph name="u1FB97" format="2">
  <advance width="1000"/>
  <unicode hex="1FB97"/>
  <outline>
    <contour>
      <point x="0" y="339" type="line"/>
      <point x="1000" y="339" type="line"/>
      <point x="1000" y="589" type="line"/>
      <point x="0" y="589" type="line"/>
    </contour>
    <contour>
      <point x="0" y="-161" type="line"/>
      <point x="1000" y="-161" type="line"/>
      <point x="1000" y="89" type="line"/>
      <point x="0" y="89" type="line"/>
    </contour>
  </outline>
</glyph>
<glyph name="u1FB9A" format="2">
	<advance width="1000"/>
	<unicode hex="1FB9A"/>
	<outline>
		<contour>
			<point x="500" y="339" type="line"/>
			<point x="1000" y="839" type="line"/>
			<point x="0" y="839" type="line"/>
		</contour>
		<contour>
			<point x="0" y="-161" type="line"/>
			<point x="1000" y="-161" type="line"/>
			<point x="500" y="339" type="line"/>
		</contour>
	</outline>
</glyph>
<glyph name="u1FBA1" format="2">
	<unicode hex="1FBA1"/>
	<advance width="1000"/>
	<outline>
		<contour>
			<point x="918" y="257" type="line"/>
			<point x="1000" y="339" type="line"/>
			<point x="500" y="839" type="line"/>
			<point x="418" y="757" type="line"/>
		</contour>
	</outline>
</glyph>
<glyph name="u1FBA2" format="2">
	<unicode hex="1FBA2"/>
	<advance width="1000"/>
	<outline>
		<contour>
			<point x="500" y="-161" type="line"/>
			<point x="582" y="-79" type="line"/>
			<point x="82" y="421" type="line"/>
			<point x="0" y="339" type="line"/>
		</contour>
	</outline>
</glyph>
<glyph name="u1FBA5" format="2">
	<unicode hex="1FBA5"/>
	<advance width="1000"/>
	<outline>
		<contour>
			<point x="918" y="257" type="line"/>
			<point x="1000" y="339" type="line"/>
			<point x="500" y="839" type="line"/>
			<point x="418" y="757" type="line"/>
		</contour>
		<contour>
			<point x="500" y="-161" type="line"/>
			<point x="1000" y="339" type="line"/>
			<point x="918" y="421" type="line"/>
			<point x="418" y="-79" type="line"/>
		</contour>
	</outline>
</glyph>
<glyph name="u1FBB0" format="2">
	<unicode hex="1FBB0"/>
	<advance width="1000"/>
	<outline>
		<contour>
			<point x="0" y="-161" type="line"/>
			<point x="334" y="149" type="line"/>
			<point x="826" y="149" type="line"/>
			<point x="0" y="839" type="line"/>
		</contour>
	</outline>
</glyph>
<glyph name="u1FBB4" format="2">
	<unicode hex="1FBB4"/>
	<advance width="1000"/>
	<outline>
		<contour>
			<point x="0" y="-161" type="line"/>
			<point x="1000" y="-161" type="line"/>
			<point x="1000" y="839" type="line"/>
			<point x="0" y="839" type="line"/>
		</contour>
		<contour>
			<point x="365" y="-90" type="line"/>
			<point x="61" y="219" type="line"/>
			<point x="365" y="528" type="line"/>
			<point x="435" y="455" type="line"/>
			<point x="257" y="271" type="line"/>
			<point x="771" y="271" type="line"/>
			<point x="771" y="726" type="line"/>
			<point x="881" y="726" type="line"/>
			<point x="881" y="168" type="line"/>
			<point x="256" y="168" type="line"/>
			<point x="435" y="-17" type="line"/>
		</contour>
	</outline>
</glyph>
<glyph name="u1FBB5" format="2">
	<unicode hex="1FBB5"/>
	<advance width="1000"/>
	<outline>
		<contour>
			<point x="530" y="-24" type="line"/>
			<point x="530" y="269" type="line"/>
			<point x="902" y="269" type="line"/>
			<point x="902" y="407" type="line"/>
			<point x="530" y="407" type="line"/>
			<point x="530" y="702" type="line"/>
			<point x="75" y="339" type="line"/>
		</contour>
		<contour>
			<point x="0" y="-161" type="line"/>
			<point x="506" y="-161" type="line"/>
			<point x="349" y="-36" type="line"/>
			<point x="0" y="-36" type="line"/>
		</contour>
		<contour>
			<point x="630" y="-161" type="line"/>
			<point x="1000" y="-161" type="line"/>
			<point x="1000" y="-36" type="line"/>
			<point x="630" y="-36" type="line"/>
		</contour>
		<contour>
			<point x="0" y="714" type="line"/>
			<point x="349" y="714" type="line"/>
			<point x="506" y="839" type="line"/>
			<point x="0" y="839" type="line"/>
		</contour>
		<contour>
			<point x="630" y="714" type="line"/>
			<point x="1000" y="714" type="line"/>
			<point x="1000" y="839" type="line"/>
			<point x="630" y="839" type="line"/>
		</contour>
	</outline>
</glyph>
<glyph name="u1FBB8" format="2">
	<unicode hex="1FBB8"/>
	<advance width="1000"/>
	<outline>
		<contour>
			<point x="432" y="-63" type="line"/>
			<point x="570" y="-63" type="line"/>
			<point x="570" y="309" type="line"/>
			<point x="863" y="309" type="line"/>
			<point x="500" y="764" type="line"/>
			<point x="137" y="309" type="line"/>
			<point x="432" y="309" type="line"/>
		</contour>
		<contour>
			<point x="875" y="-161" type="line"/>
			<point x="1000" y="-161" type="line"/>
			<point x="1000" y="209" type="line"/>
			<point x="875" y="209" type="line"/>
		</contour>
		<contour>
			<point x="1000" y="333" type="line"/>
			<point x="1000" y="839" type="line"/>
			<point x="875" y="839" type="line"/>
			<point x="875" y="490" type="line"/>
		</contour>
	</outline>
</glyph>
<glyph name="u1FBBA" format="2">
	<unicode hex="1FBBA"/>
	<advance width="1000"/>
	<outline>
		<contour>
			<point x="0" y="0" type="line"/>
			<point x="846" y="0" type="line"/>
			<point x="846" y="394" type="line"/>
			<point x="706" y="536" type="line"/>
			<point x="0" y="536" type="line"/>
			<point x="0" y="431" type="line"/>
			<point x="739" y="431" type="line"/>
			<point x="638" y="462" type="line"/>
			<point x="767" y="333" type="line"/>
			<point x="740" y="412" type="line"/>
			<point x="740" y="105" type="line"/>
			<point x="0" y="105" type="line"/>
		</contour>
	</outline>
</glyph>
<glyph name="u1FBBB" format="2">
	<advance width="1000"/>
	<unicode hex="1FBBB"/>
	<outline>
		<contour>
			<point x="553" y="392" type="line"/>
			<point x="656" y="392" type="line"/>
			<point x="656" y="739" type="line"/>
			<point x="553" y="739" type="line"/>
		</contour>
		<contour>
			<point x="344" y="-61" type="line"/>
			<point x="447" y="-61" type="line"/>
			<point x="447" y="286" type="line"/>
			<point x="344" y="286" type="line"/>
		</contour>
		<contour>
			<point x="100" y="188" type="line"/>
			<point x="447" y="188" type="line"/>
			<point x="447" y="286" type="line"/>
			<point x="100" y="286" type="line"/>
		</contour>
		<contour>
			<point x="100" y="392" type="line"/>
			<point x="447" y="392" type="line"/>
			<point x="447" y="490" type="line"/>
			<point x="100" y="490" type="line"/>
		</contour>
		<contour>
			<point x="553" y="-61" type="line"/>
			<point x="656" y="-61" type="line"/>
			<point x="656" y="286" type="line"/>
			<point x="553" y="286" type="line"/>
		</contour>
		<contour>
			<point x="344" y="392" type="line"/>
			<point x="447" y="392" type="line"/>
			<point x="447" y="739" type="line"/>
			<point x="344" y="739" type="line"/>
		</contour>
		<contour>
			<point x="553" y="188" type="line"/>
			<point x="900" y="188" type="line"/>
			<point x="900" y="286" type="line"/>
			<point x="553" y="286" type="line"/>
		</contour>
		<contour>
			<point x="553" y="392" type="line"/>
			<point x="900" y="392" type="line"/>
			<point x="900" y="490" type="line"/>
			<point x="553" y="490" type="line"/>
		</contour>
	</outline>
</glyph>
<glyph name="u1FBF1" format="2">
	<unicode hex="1FBF1"/>
	<advance width="900"/>
	<outline>
		<contour>
			<point x="700" y="380" type="line"/>
			<point x="760" y="440" type="line"/>
			<point x="760" y="640" type="line"/>
			<point x="700" y="700" type="line"/>
			<point x="640" y="640" type="line"/>
			<point x="640" y="440" type="line"/>
		</contour>
		<contour>
			<point x="700" y="10" type="line"/>
			<point x="760" y="70" type="line"/>
			<point x="760" y="270" type="line"/>
			<point x="700" y="330" type="line"/>
			<point x="640" y="270" type="line"/>
			<point x="640" y="70" type="line"/>
		</contour>
	</outline>
</glyph>
<glyph name="space_u102E0" format="2">
	<advance width="639"/>
	<outline>
		<contour>
			<point x="110" y="-422" type="line"/>
			<point x="588" y="-92" type="line"/>
			<point x="528" y="-26" type="line"/>
			<point x="51" y="-357" type="line"/>
		</contour>
	</outline>
	<anchor name="_bottom" x="304" y="0"/>
	<anchor name="bottom" x="304" y="-422"/>
</glyph>
<glyph name="uni1D2C0" format="2">
	<advance width="593"/>
	<outline>
		<contour>
			<point x="488" y="547" type="line"/>
			<point x="263" y="368" type="line" smooth="yes"/>
			<point x="170" y="294"/>
			<point x="136" y="253"/>
			<point x="136" y="186" type="curve" smooth="yes"/>
			<point x="136" y="98"/>
			<point x="202" y="49"/>
			<point x="294" y="49" type="curve" smooth="yes"/>
			<point x="383" y="49"/>
			<point x="457" y="105"/>
			<point x="457" y="192" type="curve" smooth="yes"/>
			<point x="457" y="248"/>
			<point x="434" y="287"/>
			<point x="354" y="350" type="curve" smooth="yes"/>
			<point x="105" y="547" type="line"/>
			<point x="105" y="440" type="line"/>
			<point x="278" y="315" type="line" smooth="yes"/>
			<point x="356" y="259"/>
			<point x="369" y="230"/>
			<point x="369" y="198" type="curve" smooth="yes"/>
			<point x="369" y="156"/>
			<point x="338" y="127"/>
			<point x="296" y="127" type="curve" smooth="yes"/>
			<point x="252" y="127"/>
			<point x="224" y="154"/>
			<point x="224" y="195" type="curve" smooth="yes"/>
			<point x="224" y="233"/>
			<point x="249" y="268"/>
			<point x="339" y="332" type="curve" smooth="yes"/>
			<point x="488" y="438" type="line"/>
		</contour>
	</outline>
</glyph>
<glyph name="uni1D2C1" format="2">
	<advance width="594"/>
	<outline>
		<contour>
			<point x="423" y="-240" type="line"/>
			<point x="519" y="-240" type="line"/>
			<point x="201" y="536" type="line"/>
			<point x="105" y="536" type="line"/>
		</contour>
	</outline>
</glyph>
<glyph name="uni1D2C7" format="2">
	<advance width="875"/>
	<outline>
		<contour>
			<point x="800" y="667" type="line"/>
			<point x="800" y="760" type="line"/>
			<point x="105" y="549" type="line"/>
			<point x="105" y="458" type="line"/>
			<point x="143" y="475" type="line"/>
		</contour>
		<contour>
			<point x="116" y="536" type="line"/>
			<point x="105" y="458" type="line"/>
			<point x="389" y="-240" type="line"/>
			<point x="477" y="-240" type="line"/>
			<point x="755" y="436" type="line"/>
			<point x="659" y="436" type="line"/>
			<point x="414" y="-167" type="line"/>
			<point x="452" y="-167" type="line"/>
			<point x="172" y="532" type="line"/>
		</contour>
	</outline>
</glyph>
<glyph name="uni1D2CA" format="2">
	<advance width="808"/>
	<outline>
		<contour>
			<point x="105" y="737" type="line"/>
			<point x="654" y="616" type="line"/>
			<point x="654" y="655" type="line"/>
			<point x="105" y="531" type="line"/>
			<point x="105" y="436" type="line"/>
			<point x="733" y="590" type="line"/>
			<point x="733" y="678" type="line"/>
			<point x="105" y="832" type="line"/>
		</contour>
	</outline>
</glyph>
<glyph name="uni1D2CD" format="2">
	<advance width="848"/>
	<outline>
		<contour>
			<point x="105" y="737" type="line"/>
			<point x="654" y="616" type="line"/>
			<point x="654" y="655" type="line"/>
			<point x="111" y="531" type="line"/>
			<point x="111" y="441" type="line"/>
			<point x="733" y="590" type="line"/>
			<point x="733" y="678" type="line"/>
			<point x="105" y="832" type="line"/>
		</contour>
		<contour>
			<point x="317" y="-240" type="line"/>
			<point x="405" y="-240" type="line"/>
			<point x="559" y="330" type="line"/>
			<point x="525" y="332" type="line"/>
			<point x="676" y="-240" type="line"/>
			<point x="773" y="-240" type="line"/>
			<point x="585" y="436" type="line"/>
			<point x="497" y="436" type="line"/>
			<point x="344" y="-126" type="line"/>
			<point x="378" y="-136" type="line"/>
			<point x="183" y="520" type="line"/>
			<point x="122" y="515" type="line"/>
			<point x="111" y="441" type="line"/>
		</contour>
	</outline>
</glyph>
<glyph name="uni1D2CE" format="2">
	<advance width="1030"/>
	<outline>
		<contour>
			<point x="105" y="737" type="line"/>
			<point x="654" y="616" type="line"/>
			<point x="654" y="655" type="line"/>
			<point x="111" y="531" type="line"/>
			<point x="111" y="441" type="line"/>
			<point x="733" y="590" type="line"/>
			<point x="733" y="678" type="line"/>
			<point x="105" y="832" type="line"/>
		</contour>
		<contour>
			<point x="519" y="333" type="line"/>
			<point x="672" y="-240" type="line"/>
			<point x="760" y="-240" type="line"/>
			<point x="955" y="436" type="line"/>
			<point x="859" y="436" type="line"/>
			<point x="700" y="-133" type="line"/>
			<point x="736" y="-133" type="line"/>
			<point x="579" y="436" type="line"/>
			<point x="491" y="436" type="line"/>
			<point x="335" y="-133" type="line"/>
			<point x="371" y="-133" type="line"/>
			<point x="178" y="536" type="line"/>
			<point x="126" y="517" type="line"/>
			<point x="111" y="441" type="line"/>
			<point x="311" y="-240" type="line"/>
			<point x="399" y="-240" type="line"/>
			<point x="553" y="333" type="line"/>
		</contour>
		<contour>
			<point x="519" y="333" type="line"/>
			<point x="672" y="-240" type="line"/>
			<point x="760" y="-240" type="line"/>
			<point x="955" y="436" type="line"/>
			<point x="859" y="436" type="line"/>
			<point x="700" y="-133" type="line"/>
			<point x="736" y="-133" type="line"/>
			<point x="579" y="436" type="line"/>
			<point x="491" y="436" type="line"/>
			<point x="335" y="-133" type="line"/>
			<point x="371" y="-133" type="line"/>
			<point x="178" y="536" type="line"/>
			<point x="126" y="517" type="line"/>
			<point x="111" y="441" type="line"/>
			<point x="311" y="-240" type="line"/>
			<point x="399" y="-240" type="line"/>
			<point x="553" y="333" type="line"/>
		</contour>
	</outline>
</glyph>
<glyph name="uni1D2CF" format="2">
	<advance width="808"/>
	<outline>
		<contour>
			<point x="219" y="648" type="line"/>
			<point x="218" y="625" type="line"/>
			<point x="733" y="737" type="line"/>
			<point x="733" y="832" type="line"/>
			<point x="105" y="678" type="line"/>
			<point x="105" y="590" type="line"/>
			<point x="623" y="471" type="line"/>
			<point x="624" y="493" type="line"/>
			<point x="105" y="377" type="line"/>
			<point x="105" y="282" type="line"/>
			<point x="733" y="436" type="line"/>
			<point x="733" y="524" type="line"/>
		</contour>
	</outline>
</glyph>
<glyph name="uni1D2D0" format="2">
	<advance width="808"/>
	<outline>
		<contour>
			<point x="379" y="-240" type="line"/>
			<point x="475" y="-240" type="line"/>
			<point x="172" y="502" type="line"/>
			<point x="105" y="507" type="line"/>
			<point x="105" y="428" type="line"/>
		</contour>
		<contour>
			<point x="219" y="778" type="line"/>
			<point x="218" y="755" type="line"/>
			<point x="733" y="867" type="line"/>
			<point x="733" y="962" type="line"/>
			<point x="105" y="808" type="line"/>
			<point x="105" y="720" type="line"/>
			<point x="623" y="601" type="line"/>
			<point x="624" y="623" type="line"/>
			<point x="105" y="507" type="line"/>
			<point x="115" y="432" type="line"/>
			<point x="141" y="426" type="line"/>
			<point x="733" y="566" type="line"/>
			<point x="733" y="654" type="line"/>
		</contour>
	</outline>
</glyph>
<glyph name="uni1D2D1" format="2">
	<advance width="819"/>
	<outline>
		<contour>
			<point x="170" y="508" type="line"/>
			<point x="105" y="428" type="line"/>
			<point x="378" y="-240" type="line"/>
			<point x="466" y="-240" type="line"/>
			<point x="744" y="406" type="line"/>
			<point x="645" y="406" type="line"/>
			<point x="403" y="-167" type="line"/>
			<point x="441" y="-167" type="line"/>
		</contour>
		<contour>
			<point x="219" y="778" type="line"/>
			<point x="218" y="755" type="line"/>
			<point x="733" y="867" type="line"/>
			<point x="733" y="962" type="line"/>
			<point x="105" y="808" type="line"/>
			<point x="105" y="720" type="line"/>
			<point x="623" y="601" type="line"/>
			<point x="624" y="623" type="line"/>
			<point x="105" y="507" type="line"/>
			<point x="105" y="428" type="line"/>
			<point x="141" y="426" type="line"/>
			<point x="733" y="566" type="line"/>
			<point x="733" y="654" type="line"/>
		</contour>
	</outline>
</glyph>
<glyph name="uni1D2D2" format="2">
	<advance width="842"/>
	<outline>
		<contour>
			<point x="219" y="778" type="line"/>
			<point x="218" y="755" type="line"/>
			<point x="733" y="867" type="line"/>
			<point x="733" y="962" type="line"/>
			<point x="105" y="808" type="line"/>
			<point x="105" y="720" type="line"/>
			<point x="623" y="601" type="line"/>
			<point x="624" y="623" type="line"/>
			<point x="105" y="507" type="line"/>
			<point x="105" y="428" type="line"/>
			<point x="141" y="426" type="line"/>
			<point x="733" y="566" type="line"/>
			<point x="733" y="654" type="line"/>
		</contour>
		<contour>
			<point x="311" y="-240" type="line"/>
			<point x="399" y="-240" type="line"/>
			<point x="553" y="300" type="line"/>
			<point x="519" y="302" type="line"/>
			<point x="670" y="-240" type="line"/>
			<point x="767" y="-240" type="line"/>
			<point x="579" y="406" type="line"/>
			<point x="491" y="406" type="line"/>
			<point x="338" y="-126" type="line"/>
			<point x="372" y="-136" type="line"/>
			<point x="177" y="508" type="line"/>
			<point x="105" y="429" type="line"/>
		</contour>
	</outline>
</glyph>
